<?xml version="1.0" encoding="UTF-8"?>
<svg id="Capa_1" xmlns="http://www.w3.org/2000/svg" version="1.1" viewBox="0 0 710.3 477.6">
  <!-- Generator: Adobe Illustrator 29.8.1, SVG Export Plug-In . SVG Version: 2.1.1 Build 2)  -->
  <defs>
    <style>
      .st0 {
        fill: #bfa0d2;
      }

      .st1 {
        isolation: isolate;
      }

      .st2 {
        fill: #fff;
      }
    </style>
  </defs>
  <g id="Grupo_69">
    <g id="GIRL" class="st1">
      <g class="st1">
        <g class="st1">
          <path class="st0" d="M46.2,192.2c0-.8-.5-1.6.2-2.4.4-.4-.1-1.6-.2-2-.1-1.2.6-2.5.5-3.7,0-.8-.2-2,.5-3.3.3-.8.7-1.7.2-2.8-.5-.8-.5-1.2.3-1.6.4-.4.3-1.2.3-1.6v-.4c1.4-1.7.8-4.1,2.3-5.4.8,0,.7-.9.7-1.7,1-2.5,1.6-5,3.8-6.8.8-.5,1.5-1.3,1.4-2.5.3-1.6,3.2-4.3,4.8-4.4.8,0,1.5-.9,2.7-1,1.2-.5,2.4-.6,3.6-.7.8,0,1.6-.5,2.3-1,.8-.5,1.2-.1,2-.6,1.1-.9,2.7-1,4.3-1.6.8-.5,1.6-.1,2-.2.8.3,1.6-.1,2.5.6.4,0,.8,0,.8-.5l1.5-1.3c.4-.4.7-1.3,1.6-.5.4,0,.8,0,1.2-.5.4-.4.8-.5,1.2-.1h.8c.8-.5,1.5-1.4,2.7-1.1,1.1-1.3,3.2-.3,4.2-2,1.7.7,2.7-1,4-.7h.4c.7-1.3,2.3-1,3.5-1.5.4,0,.8-.5,1.2-.1h.4c1.9-1.4,4.7-1.2,6.6-2.6.4,0,.8-.5,1.2-.1h.4c1.1-.9,2.8-.7,3.9-1.6.4,0,.4-.4.8-.5,2,.2,3.5-1.1,5.5-1.7,1.6-.1,2.8-.2,4-.7,1.5-.9,3.5-1.1,5.1-1.6,0-.4.4-.4.4,0l-.4.4c-.4,0-.8,0-.8.5.4.4.5.8.5.8.4,0,.8,0,1.2-.5.3-.8,1.5-1.3,2.2-2.2.4,0,.8-.5,1.2-.5,1.2-.1,2.3-1,3.9-1.1.4,0,.8-.5,1.6-.5.4.4.8,0,1.2-.1,1.2-.5,2.4-.6,3.5-1.5.8-.5,1.2-.1,2,.2.9.7,2.5,1.4,3.7,1.3,0,.4.4.4.4.4.9.7,1.3,1.5,2.5,1,.9,1.5,2.6,1.8,3.9,2.9,1.3,1.1,2.6,2.6,3.9,3.3,1.3.7,2.1,1.4,3,2.1.4.4.9.7.9,1.1,1.8,2.2,4,4.1,6.1,5.9.5.8.9,1.5,1,2.3.5.8.5,1.6,1.4,1.9.5.8.6,2,1.4,2.3,2.2,2.2,3.2,4.9,4.7,7.6l2.4,4.2,1.5,3.9v1.2c.7,2,2.4,3.8,3.5,6.1l1.6,4.3c0,.4.4.4.5.8.4.4,1.3,1.1.1,1.2-.4,0-.4.4-.3.8,0,.4-.3,1.2-.7,1.7-.4.4-.8.5-1.2.1-.4-.4-.5-.8-.1-1.2,0-.4.4-.4.3-.8-.4-.4-.8,0-1.2.1,0,0-.4,0-.8.5,0,.8-.3.8-1.2.5-.8,0-.1-1.2-.5-1.2l-3.2.3v.4c-1.3-1.5-2.7,1-4,.3,0-.4-.4,0-.4,0-.4.4-.7.9-1.2.1-.4-.4-1.3-.7-.5-1.6.4,0,.8-.5.3-.8,0-.4-.4,0-.8,0l-2,.2c-.8,0-1.6.1-2.1-.6-.5-.8-2.1-.6-2.4-.2-.3.8-1.1,1.3-1.5,1.7-1.1,1.7-2.3,1.4-3.5,1.1-.4,0-.8,0-.4-.4,0-.4,0-.8-.4-.4-1.1.9-2.3,1-3.4,1.9-.4.4-.4,0-.4,0-.5-.8-.9-1.1-1.6-.3l-1.3-.7c-.4,0-.8,0-.8-.3,1.1-1.7-1.3-1.5-1.4-2.7,0-.4-.8,0-1.2.1-.8.5-1.2.5-1.6.1-.8-.3-1.3-1.5-2.5-.6,0,.4-.4.4,0-.4,0,0,.4-.4,0-.8-.4-.4-.8,0-1.2.5-.3.8-1.1,1.7-1.8,2.6-.4.4-.8.5-1.6.1-1.2-.3-2.9-.6-3.8-1.7h-1.2c-1.6.6-2.4,0-3.4-1.6-1.4-2.3-3.6-4.1-6.1-5.5q-.4,0-.8-.3c-2.2-1.8-4.6-1.6-7-1.8l-5.6.5c-2.4.6-5.1.9-7.4,2.7-2.4.6-3.8,2.7-5.7,4.1-1.2.5-1.8,2.2-2.9,3.5-.3.8-1.1,1.3-1.9,1.4-.8-.3-1.6.1-1.5.9,0,.4.1,1.2-.3,1.2-.4,0-1.2-.3-1.3-.7-.5-1.2-1.3-1.1-2.1-.6-.8,0-2,.2-2.4-.2-.9-.7-1.2.1-1.6.1,0-.4.3-1.2-.1-1.6-.9-.7-1.3-.7-1.6.1-.7.9-1.1,1.3-1.9,1-1.6.1-2.5-.6-2.6-2.2,0,0-.4-.4-.5-.8q-.4-.4-.8,0c-.7,1.7-2.3,1-3.6.7-.8,0-1.2.1-1.6.5l-1.1.9q-1.5.9-2.9-.6c-.4-.4-1.2.1-2,.2-.8.5-1.1,1.7-2.3,1.4l-.4.4c-.2,2-1.5,1.7-2.6,1.8-.4,0-.8,0-.8.5,0,.4-.3.8-.3.8q-1.1,1.7-3.1,1.5c-.4,0-.8-.3-1.2.1-1.2.5-2.3,1-4,.7h-.8c-.4.1-.7.9-1.2.6,0-.8.7-.9.7-1.3q.4-.4,0-.8c0-.4-.4,0-.8.5l-.7,1.3c-1.5,1.7-3.4,2.7-4.9,3.6-.8.5-1.2.5-1.3-.7ZM63.5,312.8v-.4c.3-.8.7-1.3-.2-2.4-.4-.4-.5-1.6-.6-2.4-.1-1.2-1-1.9-1-2.7-.1-1.6-.6-2.8-.8-4.3.4-.4,0-.8-.1-1.2-1-2.3-1.2-4.7-1.8-7.1-.6-2-.8-4.3-1.8-6.3-.4-.4,0-.8-.1-1.2-.6-2.8-1.3-5.5-2.3-8.2-.5-1.2-.2-2.4-.7-3.2,0-.8.7-.9.6-2.1l-1.4-2.7c-.5-.8-.9-1.1-.6-2.4.3-.8-.2-2-.7-3.2-.2-2.4-1.2-4.3-1.8-6.7l-.2-2c.7-1.3-.2-2-.6-2.8-.5-1.2-1-2.3-.7-3.6,0-.8-.5-1.6-.6-2.4-.5-1.2-1-1.9-.3-3.2.4-.4,0-.4,0-.8-.5-.8-.5-1.2-.2-2,.4-.4.8-.5,1.2-.5.9.7,1.6-.5,2.5.6.4,0,1.1-.9,1.9-1,.8-.5,1.1-.9,2-.2h.4c.3-1.3,1.6-.6,2-.6,1.2-.1,1.9-1,2.8-.2,1.1-1.3,2.8-.6,3.9-1.1.8,0,1.1-.9,1.6-.1h.8c1.1-1.4,2.7-1.1,4.3-1.6,1.2-.5,2.8-.6,4-.7h1.2c.4-.5,1.2-.6,1.6-.6,1.6.3,3.2-.3,4.7-.8.8-.5,1.2-.1,1.3.7-.3,1.2.5.8.8.3.8,0,2-.6.7-1.7,0,0,.4-.4.8-.5h1.2c1.6.2,2.4-.3,3.6-.8,1.6-.5,3.2-.7,4.3-.8h.4q1.6.2,2.2,1.8c1,2.7,1.7,5.9,2.4,8.6.2,2.4.5,5.2,1.1,7.5l1.9,7.5c.2,2.4.8,4.7,1.4,7.1.6,2.8,1.7,5.5,2,8.7.2,2.4,1.6,5.1,1.9,7.5.1,1.2.1,1.6,1,2.3,0,.4.5.8.1,1.2-.3,1.6.2,2.8.8,4.3.6,2,.8,4.3,1.4,6.3.5,1.6.7,3.6,1.6,4.7.4.4.5,1.2.5,1.6-.2,2.8.9,5.5,1.1,8.3.5.8.1,1.2-.7,1.3-.8,0-1.6.5-2.4.6-4.7,1.6-9.8,2.9-14.5,4.5-5.1,1.2-10.2,2.9-15.3,4.1-3.9,1.1-7.4,2.3-11.4,3-.4.4-1.1.9-1.9,1-.4,0-1.3-.7-1.6.1-.4,0-.4-.4-.5-.8,0,0,.4-.4.8-.5,0-.4.7-.9.3-1.2,0-.4-.4.4-.8.5-.4,0-.4.4-.8,0v-.4c.3-1.2.2-2-.7-3.2l-1.5-3.9ZM55.7,241.6c.8,0,.1,1.2,1.3.7.4,0,1.6-.5,1.1-1.3,0-.4-.5-1.6-1.3-1.1-.8.5-1.1.9-1.1,1.7ZM56.6,265.6c0,.4.5.8.8.3.4,0,.8-.5.3-.8,0-.4-.4-.4-.8-.3s-.4.4-.3.8ZM108.2,194.4v1.6c.7,1.6.4,2.8.5,4.4.2,2.8.9,5.5,1.9,7.9.6,2,1.5,3.9,1.8,6.3.5,1.2,1,1.9,1.1,3.1-.3,1.2.6,2,1.1,3.1v1.6c.7,1.6.3,2-1.2,2.5-1.6.1-3.2-.1-4.7.8-.4,0-.8,0-.8-.3-.5-.8-.9-.7-1.2.1-.3.8-1.1.9-1.9,1-.4,0-1.2.1-1.6.5-1.6.5-2.7,1-4.4,0-.9-.7-2-.2-2.3,1q-.3.8-.7.9c-.8,0-1.6.5-2.4.2-.8,0-1.2.1-1.6.5-1.2.5-2.3,1-3.6.3-.4,0-.8,0-1.2.5-2.3,1-4.7,1.6-7.1,1.8-1.2.1-2.4.6-3.6.7-1.6.1-2.8.6-4.3,1.2-1.6.5-3.2.7-4.7.8-1.6.1-2,.2-2.2-1.8,0-.4-.5-1.2-1-1.9-.7-3.2-1.7-5.9-2.4-9-.6-2-1.1-3.9-1.3-5.9-.6-2-.7-3.9-.9-5.9-.6-2-.3-4-1.3-5.5-.1-1.2-.2-2.4.1-3.2.3-.8.2-2-.2-2.4-.5-1.2-.6-2.4-.3-4,0-.4.3-.8.8-.5.9,1.1,2-.2,2.8.2,0,0,.4-.4.8-.5,1.3,1.1,2.8.2,4-.7h.8c1.7.6,2.4.1,3.5-1.2,1.1-.9,1.8-2.6,3.8-1.9,0,0,.4,0,.4-.4,1.1-.9,2.3-1,3.5-1.5,1.2-.1,2,.2,2.9,1,.5.8,1.3,1.1,2.1,1.4.4,0,.8,0,1.2-.5,1.1-.9,2-.6,2.9.6q0,.4.4.4c.4,0,.4-.4.4-.4,0-.8-.9-1.1-.1-1.6.8,0,1.5-.9,2-.6,1.2.3,2-.2,3.3.5.5.8,2,.2,2.9.6.8,0,1.7.7,2.5.6.8,0,1.6.3,2.5.6,1.3.7,2.9.6,4,0,.8-.5,3.6,0,3.7.9,0,.8.5,1.6-.2,2.4ZM196,335.7c-.7.9-1.5,1.7-1.3,3.3,0,.8-.6,2.1-.5,3.3-.3,1.2-1.5,1.7-1.8,2.6-1.9,1.4-2.1,3.4-3.2,5.1-.4.4-.3,1.2-.7,1.7-1.9,1.8-2.9,3.9-4.8,4.8-.4,0-.8.5-1.1.9-.6,2.5-2.9,3.9-4.8,5.2-1.1,1.3-2.6,2.6-3.7,3.5-1.1,1.3-2.6,2.6-4.2,2.8-.8,0-1.6.5-1.9,1-2.3,1.8-5,2.8-7.7,3.9-1.5.9-3.1,1.5-5,2-2,.6-3.9,1.5-5.8,2.1-2.8.6-5.1,1.6-8.2,2.3-2,.6-4,.3-5.9,1.3-.8.5-1.6-.3-2,.2-1.9,1-4.3.8-6.4.6-.4,0-1.2.1-1.6.5-1.2.5-2.8.2-4,0-1.6.1-3.2-.1-4.8.4-1.6.5-2.8.6-4,0-2.1-.6-4.1-1.2-6.1-1.1-1.6.1-2.5-1-3.7-1.3-1.2.1-2.1-.6-2.9-1-.8-.3-1.3-.7-2.1-.6-1.6.1-2.9-.6-3.8-1.7-.9-.7-2-.2-2.9-1-1.3-.7-2.1-1.4-3.4-2.5-.4-.4-1.3-1.1-2.1-1-2.1-.6-3-1.7-4.3-3.2-.4,0-.4-.4-.5-.8-4.3-3.2-7.1-7.4-10.6-11.5-.5-.8-1.4-1.9-1.9-3s-1-1.9-1.4-2.3c-.4-.4-.9-.7-.9-1.1-.6-2-1.9-3.8-2.1-5.8-.1-1.2-1-1.9-1.5-3.1,0-.4-.1-1.2-.6-2-.6-2.4-1.6-4.7-2.6-7l-1.3-5.5c-.5-1.2.2-2,1.4-2.1.8.3,1.6-.1,2-.6.7-.9,2-.2,2.8-.6.8-.5,1.1-1.3,2.4-.6,1.1-.9,2.8-.2,3.9-1.1,1.2-.5,2.3-1,3.5-1.1.4,0,1.5-1.3,2-.2.4.4.8,0,.8,0,1.1-.9,1.9-1,3.2-.3.8.3,1.2.3,1.1-.9.3-1.2.7-1.3,1.2-.5.8.3.8,0,1.2-.5,1.1-1.3,2.3-1.8,3.9-1.1.4.4,1.6-.1,2.1,1,.4.4,1.2-.5,1.1-1.3,0-.8.3-1.2,1.1-1.3.4,0,.8.3,1.2-.1.7-.9,1.9-1,3.1-1.1s2,.2,2.5.6c.4.4.5.8.9.7.4-.4,1.1-.9.7-1.3,0-.4-.5-.8-.1-1.2.8-.5,1.1-1.3,1.9-1,1.2.3,2-.2,2.8-.6,1.2-.5,2-.2,2.1,1,.5,1.2.6,2.8,1.1,3.9.6,2.8,1.6,5.1,3.5,7.3.9,1.1,2.2,1.8,2.3,3.8-.3.8.5,1.6,1.4,1.9,1.7.7,2.2,1.8,3.8,2.5.4,0,.9.7,1.7.7.8,0,.8.3,1.3.7,1.6.3,3.3,1.3,5.7,1.1.8,0,1.6.3,2.8-.6.4-.4.8.3,1.6.3,1.2-.5,2,.2,3.1-1.1h.4c1.7.6,2.4-.6,3.5-1.5.8-.5,1.5-1.3,2.7-1h.8c1.5-1.4,2.6-2.3,4.1-3.2v-.8c-.1-.8.2-1.2.6-1.7.4-.4.7-.9.7-1.7-.5-.8-.1-1.2.7-1.7.8-.5,1.9-1,1.4-2.5,0-.4.3-.8.7-.9l1.5-1.3c.8-.5,1.6-.5,2,.2s.9.7,1.6.3c1.5-.9,2-.6,2.5,1,.5.8,1.2-.1,1.7.7.4.4,1.2.3,2-.6.3-.8,1.2-.1,1.2.3.5,1.2,1.3,1.1,2.1,1,.8.3,1.3,1.1,2.1,1.4.4,0,.4.4.8.3,1.1-1.3,2.4-.2,3.6-.7.4,0,.8,0,.8.3,1.7,1.5,3.1,2.9,4.4,4.4.4.4.9.7,1.3.7.8,0,.9.7,1.3,1.1.9,1.5,1.8,2.7,3.5,2.9.8,0,1.2.3,1.3,1.1.5.8.9,1.5,1.7,1.1.8-.5.8,0,1.2.3.5.8.9,1.1,1.7,1.1.4,0,.8.3,1.2-.1.8-.5,1.6-.1,2.1.6.1,1.2.5,1.2,1.7.7.4,0,.4-.4.7-.9.3-.8.7-.9,1.6-.5,1.3.7,1.3,1.1.1,1.6ZM58.2,275.1c0,.8.1,1.6,1.3.7.4,0,.8-.5.8,0q.8,0,.7-.9c-.4-.4.3-.8-.5-.8-.8-.3-1.3-1.1-2-.2-.4,0-.8.5-.3,1.2ZM59.2,175.8c0,.4.4.4.8.3,0,0,.4,0,.4-.4,0,0-.4-.4-.8-.3s-.4,0-.4.4ZM60.1,260.1c.4.4.8.3,1.2.3v-.4s-.1-.8-.9-.3c0,0-.4,0-.4.4ZM61.7,269.2c.5.8,1.3,1.1,1.7,1.1.8.3,1.2-.5,1.1-1.3,0-.4-.9-1.1-1.3-.7-.8,0-1.6.5-1.5.9ZM65.3,218.3c0-.4-.4-.4-.4-.4-.4,0-.8,0-.4.4q0,.4.4.4l.4-.4ZM65.5,179.3c.4,0,.4-.4.7-.9h-.4c-.4,0-.8.1-.8.5q0,.4.4.4ZM66.7,302.9s0-.4-.4,0q-.4,0-.4.4c-.4.4,0,.4.4.4,0-.4.4-.4.3-.8ZM66.9,263.9c.4,0,.8-.5.7-1.3-.4-.4-.5-.8-.9-.7-.8,0-.3.8-.3,1.2,0,.4,0,.8.5.8ZM69.6,212.3c0-.8-.5-.8-.8-.3-.4,0-.8,0-.4.4,0,.4.4.4.4.4.4,0,.8,0,.8-.5ZM68.6,173s.4.4.8.3c0-.4.4-.4.3-.8-.4-.4-.8-.3-.8-.3-.4,0-.4.4-.3.8ZM68.8,258.1c.4.4.9,1.1,1.7.7.4,0,1.2-.5,1.1-1.3-.5-.8-.9-1.1-1.7-1.1-.8.5-1.1.9-1.1,1.7ZM69,297c-.4.4,0,.4,0,.4.8-.5,1.2-.5,1.1-1.3q0-.4-.4-.4c-.8.5-.7.9-.7,1.3ZM70.1,337.9c0-.4-.4-.4-.4-.4-.4,0-.8,0-.4.4v.4q.4-.4.8-.5ZM71,242.3c0,.4,0,.8.5.8.4-.4.8-.5.7-.9,0-.4-.4-.4-.8-.3s-.4,0-.4.4ZM73.6,266.9c-.4-.4-.5-1.2-1.3-1.1-.4,0-1.2.5-1.1.9,0,.4,2.1,1,2.1,1,.4-.4.8-.5.3-.8ZM73.6,304.3c0-.4-.5-.8-.9-.7-.4.4-.3.8-.3,1.2,0,.4,0,.8.5.8.4-.4.8-.5.7-1.3ZM72.5,291.5c0,.4.4.4.4.4q.4,0,.8-.5c0-.4-.4,0-.8-.3,0,0-.4,0-.4.4ZM73,251.3c.4.4.5,1.2,1.3.7.4,0,.8-.5.7-.9-.4-.4-.8-.3-1.7-.7q-.4.4-.3.8ZM75,214.6c-.4-.4-.9-.7-1.3-.7-.8.5-.7,1.3-.6,2.1,0,.4,0,.8.4.4.8-.5,1.5-.9,1.5-1.7ZM74.9,314.2s0-.8-.4-.4c-.8,0-.3.8-.3,1.2s0,.8.4.4c.4,0,.4-.4.3-1.2ZM74,175.7q0,.4.4,0l.7-.9c0-.4-.4,0-.8,0s-.4.4-.3.8ZM74.8,262.4c.4.4.8-.5,1.2-.5,1.2-.5.7-1.3.6-2.1-.1-1.2-.5-1.2-.9-.7-1.2.1-1.5,1.3-1,2.1,0,.4-.3,1.2.1,1.2ZM75.8,237.4s.4,0,.4-.4h.4c-.4,0-.4-.4-.4-.4-.4,0-.9-.7-1.6-.3l1.3,1.1ZM74.6,301.8c.8.3.8-.5,1.1-.9h.4c.4-.5.7-.9.3-1.3-.4,0-.8-.3-1.2-.3-.8.5-.7,1.3-.6,2.1v.4ZM77.4,224c-.4-.4-.9-.7-1.7-.7-.4,0-.8.5-.7.9.4.4.5,1.2,1.3,1.1.4,0,1.2-.5,1.1-1.3ZM76.6,182.3h-.8c0-.3.3-.8.3-.8h.8c0,.3-.3.8-.3.8ZM76.2,306.4c0,.4.4.4.8.3.4-.4.3-.8.3-1.2-.4,0-.8.5-.8.5-.4,0-.8.5-.4.4ZM78.5,350.8c-.4-.4-.5-1.2-1.3-1.1-.4,0-.8.5-.7.9,0,.4.9.7,1.3,1.1.4,0,.8-.5.7-.9ZM77.6,170.2c.4,0,.8-.5.7-.9,0-.4-.9-.7-1.3-.7-.4,0,0,.8,0,.8,0,.4,0,.8.5.8ZM77.9,302.3c-1.1.9-1,2.1-.5,3.3.4-.4.8-.5.7-.9-.1-1.2-.1-1.6.2-2,.8-.5,1.1-.9.7-1.7,0-.8-.1-1.6.2-2.4.4-.4.8,0,0-.4l-.9-1.1v.4c.1,1.2-.2,2.4,0,3.6.4.4.1,1.2-.3,1.2ZM79.5,307.4c-.5-.8-.4-.4-.8-.3-.7.9-1.1,1.7-1.4,2.5,0,.4-1.1,1.7.9,1.1l.4.4c.1,1.2.4.4.8,0,.3-1.2-.6-2.8,0-3.6ZM77.5,316.8c0,.4,0,.8.5,1.2.8,0,.8-.5.7-.9v-.8q-.1-.4-.5-.4h-.4c0,.4-.4.5-.3.9ZM78.8,313c0-.4,0-.8-.5-.8-.4,0-.4.4-.4.4,0,.4.5.8.9.7v-.4ZM78,294.6s0,.4.4.4c.4-.4.8-.5.7-.9s-.4-.4-.8-.3-.4.4-.3.8ZM78.2,296.6v.4q.4,0,.4-.4t.4-.4s0-.4-.4-.4c0,.4-.4.4-.3.8ZM79.4,256c0,.4-.3.8.5.8.4-.4,1.2-.5.7-1.3,0-.4-.5-1.2-.9-.7-.8,0-.8.5-.3,1.2ZM81.3,218.1c-.4-.4-.5-.8-1.3-.7-.4,0-1.2.5-.7.9.4.4.9,1.1,1.7.7q.4,0,.3-.8ZM80.9,241c.4,0,1.5-1.3,1.5-1.7-.4,0-.8-.3-1.6-.3-.8,0-.3.8-.3,1.2-.4.4,0,.8.5.8ZM81.2,202.8c-.4,0-.8.5-.7.9-.4,0,0,.4,0,.4.4,0,.8-.5,1.1-.9q0-.4-.4-.4ZM82.4,303.1c0-.4-.4-.4-.4-.4-.8,0-.8.5-1.1.9v.4c.8,0,1.2-.5,1.6-.9ZM81.2,290.3l1.9-1c.4-.4.7-.9.7-1.3,0-.4-.4-.4-.4-.4-.8-.3-1.2.1-1.5.9,0,.4-.7.9-.7,1.7ZM82.9,226.4c-.8,0-1.5,1.3-1.5,1.7.4.4,1.2.3,1.6.3.8-.5-.5-1.2.3-1.6,0-.4-.4-.4-.4-.4ZM84.4,248.7c-.4-.4-.9-.7-1.3-.7q-.8.5-.7.9c.4.4.5,1.2.9.7.4,0,1.2-.1,1.1-.9ZM82.9,172.2q0,.4.4.4c.4-.4,1.2-.5,1.1-1.3,0-.4-.4,0-.8,0-.4,0-.8.5-.7.9ZM83,273.7c0,.4.4.4.8.3q.4,0,.4-.4-.4-.4-1.2-.3v.4ZM84,312.6s0-.4-.4-.4c-.4,0-.4.4-.3.8,0,0,0,.4.4.4.4,0,.4-.4.3-.8ZM85.5,298c0-.8-.9-1.1-1.3-.7-.4,0-1.2.5-.7.9.4.4.1,1.2.9,1.1.8-.5,1.1-.9,1.1-1.3ZM84.9,282c.4.4.5.8.9.7v-.4c-.5-.4-.5-.8-.9-.7v.4ZM85.6,243.8c.5.8.5,1.6,1.3,1.1.4,0,1.2-.5.7-.9,0-.8-.5-1.2-1.3-1.1-.4,0-.8.5-.7.9ZM85.9,151c.4,0,.8-.5.7-.9v-.4q-.8.5-.7,1.3ZM86.1,267.8c.4.4.1,1.2.9,1.1.8-.5,1.5-1.3,1.1-1.7,0-.8-.5-1.2-.9-1.1-.8.5-1.1.9-1.1,1.7ZM87.9,307.4c0-.4-.9-.7-1.3-1.1-.4.4-.8.5-.3.8,0,.4-.3,1.2.5,1.2.4,0,1.2-.1,1.1-.9ZM89.4,356.7q-.4-.4-.8-.3c-.4,0-.4.4-.3.8q0,.4.4.4c.4-.4.8-.5.7-.9ZM88.5,277.3c0,.8.1,1.2.5.8.8,0,1.5-.9,1.5-1.3-.5-.8-.9-1.1-1.7-1.1-.4.4-.7.9-.3,1.6ZM91,199.6c-.4-.4-.8,0-1.2.5-.4,0-.8.5-.7.9,0,.4.4.4.4.4.8-.5,1.1-.9,1.5-1.3,0,0,.4-.4,0-.4ZM89.9,302c.4,0,.8-.5.7-.9s-.5-.8-.9-.7c-.4.4-.3.8-.3,1.2q0,.4.4.4ZM90.3,238.2c.8,0,1.2-.5,1.5-.9-.5-.8-.9-.7-1.3-.7-.8,0-.8.5-.7.9,0,.4.1,1.2.5.8ZM92.3,223.9l-.4-.4c-.8,0-.7.9-1.1,1.3,0,.4.4.4.4.4.8,0,.7-.9,1.1-1.3ZM93,351.6c0-.4-.9-.7-1.3-.7-.8,0,0,.8-.3,1.2.4,0,0,.4.4.4.4,0,1.2-.5,1.1-.9ZM93.1,209.8c0-.4-.5-.8-.4-.4-.8,0-1.2.5-1.1.9q0,.4.4.4c.4-.4,1.2-.1,1.1-.9ZM92,247.7h.4c.4,0,.8-.5.7-.9,0,0,0-.4-.4-.4-.4.4-.7.9-.7,1.3ZM92,270.9q0,.4.4.4c.4,0,.8-.5.7-.9,0,0-.4-.4-.4,0-.4,0-.8,0-.8.5ZM93.5,311s.4-.4,0-.8c-.4,0-.8.5-1.2.5-.3.8.1,1.2.1,1.6q.4.4.8.3c.4-.4.8-.5.3-.8,0-.4-.4-.4,0-.8ZM92.1,194.6c.4.4.8.3,1.2.3l.4-.4c-.4-.4-.9-.7-1.3-.7,0,0-.4.4-.3.8ZM95.3,336.1c0-.4-.5-.8-.5-.8-.8-.3-1.2-.3-1.6.1-.4.4-1.1.9-.7,1.3,0,.4.8,0,1.2-.1h1.2q.4-.1.4-.5ZM93.5,296.9c.8,0,1.2-.5,1.1-1.3l-.4-.4c-.8,0-1.2.5-1.1,1.3,0,.4.5.8.4.4ZM95.1,178.3l1.3,1.1c.4-.4,1.1-.9,1.1-1.3-.5-.8-1.2-.3-2-.2,0,0-.8,0-.4.4ZM95,241.4q0,.4.4.4c.4-.4.7-.9.7-1.3h-.4c-.4,0-.8.5-.7.9ZM95.9,265c.4,0,.5.8,1.3.7.4,0,.4-.4.4-.4-.5-.8-.9-1.1-1.7-1.1,0,.4-.3.8,0,.8ZM98.3,214.6c.4-.4,1.1-.9,1.5-1.7-.5-.8-1.3-1.5-1.7-1.5-.8.5-1.5,1.7-1.4,2.5,0,0,1.3.7,1.7.7ZM100.4,339.3c-.4-.4-.9-.7-1.7-.7-.4,0-.3.8-.3,1.2,0,.8.5.8.9.7.8,0,1.2-.5,1.1-1.3ZM98.9,299.6h.4s.4,0,0-.4v-.4c-.4.4-.8.5-.4.8ZM99.3,198c.4,0,.8-.5.7-.9,0-.4-.4-.4-.4-.4-.4.4-.8.5-.3,1.2ZM102.5,221.8c-.4,0-.9-.7-1.7-.7-.4-.4-.8,0-1.2.5v.8c.9.3,1.7.3,2.5.2q0-.4.3-.8ZM101.9,324.7c-.4-.4-.5-.8-1.3-.7v.4c.5.4.9.3.9.3h.4ZM101.3,309.1q.4,0,.8-.5l-.4-.4c-.4.4-.8.5-.8.5q0,.4.4.4ZM101.3,207.1l.4.4q.4-.4.3-.8s0-.4-.4-.4q-.4.4-.3.8ZM105.7,216.3c-.4,0-.5-.8-1.3-.7-.4.4-.8.5-.7.9,0,.8.4.4.9.7.4.4.8.3,1.2-.1.4,0,.4-.4,0-.8ZM105.5,288.2h.4c.4,0,1.5-1.4,1.5-1.4q-.4-.4-.8-.3c-.4,0-1.1,1.3-1.1,1.7ZM107,327.8c0-.4-.4-.4-.4-.4l-.7.9c0,.4.4.4.4.4.4-.4.8-.5.7-.9ZM107.4,209c-.4.4-.8.5-.7,1.3.8,0,1.2-.5,1.5-1.3-.4-.4-.8,0-.8,0ZM106.9,152.4q0,.4.4.4c.4,0,.8-.5.7-.9h-.8c0,0-.4.5-.4.5ZM109.5,296.3c0-.8-.8-.3-1.2-.3-.8-.3-.4.4-.3.8,0,0,0,.8.4.4.4,0,1.2-.5,1.1-.9ZM113.5,355.8c0-.4-.5-.8-.9-1.1-.4.4-.7.9-.7,1.7,0,.4.5.8.9.7.4-.4.7-.9.7-1.3ZM120.9,343.9q0-.4-.4-.4c-.4,0-.8.5-.7.9,0,.4.4.4.4.4.4-.4.8-.5.7-.9ZM121.7,151.5l1.6.3s.4,0,.4-.4c-.5-.8-1.2-.3-1.6-.3l-.4.4ZM126.5,169.5c.4,0,.8-.5.7-.9q0-.4-.4-.4c-.4,0-.4.4-.7.9q0,.4.4.4ZM128.2,161.8c0,.4.5.8.9.7.4,0,.8-.5.7-.9,0-.4-.9-.7-1.3-.7-.4,0-.4.4-.3.8ZM194.9,245.1c0,.4,0,.8.5,1.6.5,1.2,1.4,1.9,1.5,3.5,0,.4.5.8.5,1.2.5,1.2,1,1.9.3,3.2-.4,0-.7.9,0,.4.8,0,.8.3.9.7.1,1.6-.1,3.2.4,4.8.4.4.5.8.5,1.2.9.7,1.3,1.5.2,2.4-.4.4,0,.8,0,.8,1.2-.1.9.7.9,1.5.5,1.2,1.4,1.9,1.5,3.1-.2,2.4.8,4.7,1,6.7,0,.4.5.8.5,1.2.9,1.5.7,3.2.4,4.8,0,.8-.3,1.6-1.1,1.3h-.8c-1.5,1.4-3.4,2-5.1,1.7-1.6.1-2.4.2-3.5,1.1-.8.5-1.6.5-2.4.6-2,.2-3.5,1.5-5.5.9h-.4c-.7,1.3-2.3,1.4-3.4,1.9-1.6.1-3.2.7-4.7,1.2-.4,0-.8,0,0-.8,0,0,.4-.4,0-.8-.4,0-.8-.3-1.2-.3-.4,0-.4.4-.3.8.1,1.2-.3,1.6-1.5,1.7-4.3,1.6-8.6,2.4-12.9,3.5l-6.3,1.8c-2,.6-3.6.3-5.6,0-.4-.4-.8-.3-1.2.1-1.1,1.3-3.1,1.1-4.7,1.2-2-.2-4.5-.8-6.3-2.7-.4-.4-.9-.7-.9-1.5-.1-1.2-.6-2.4-1.5-3.5-.5-.8-.1-1.6-.6-2.8-.5-1.2-1.4-2.7-1.6-4.3-.1-1.6-1-2.7-.8-4.3.4,0,.4-.4,0-.4-.9-1.1-1-2.3-1.1-3.5-.2-2-1.1-3.5-.9-5.5-1.7-1.1-.6-2.8-.8-4.3-.5-1.2-.6-2.8,0-4-1.3-1.1.6-2.1.1-3.2,0-.4.7-.9,1.1-1.3,1.5-1.3,3-2.7,4.9-4q.4-.4.8,0c.8.3,1.2-.1,2-.6.8-.5,1.5-.9,2.3-1,.8.3,1.2-.5,2-.6,1.2.3,2.4-.2,3.5-1.1h.4c.8.3,1.6.2,2-.2.4-.4,1.1-1.3,1.6-.1h.8c.7-.9,1.5-1,2.4-.7.4,0,.8-.5,1.2-.5.4-.4.8-.5,1.2-.5.9.7,1.6-.1,2.4-.6.8-.5,1.1-1.3,2-.6.4.4.8,0,.8,0,1.6-.1,3.1-1.1,5.1-.9q.4,0,.8-.5h.8c1.2-.6,2.8-.7,4.3-1.2.4-.4,1.2-.1,2-.6.4-.4.8-.5.8-.5,1.3.7,2.4-.6,3.6,0h.4c1.1-.9,1.9-1.8,3.1-1.1q.4,0,.8-.5c.4-.4,1.2-.5,2-.2l2.4-.2c1.2-.5,2,.2,3.2-.3.4,0,1.2.3,1.7.7.8.3,1.7.7,2.5,1.4.9.7,1.3,1.5,1.4,2.7ZM133.4,142.8h.4c0-.4.8-.5.7-1.3h-.4c-.4.5-.8.5-.7,1.3ZM139.7,338.6c-.4-.4-.8,0-1.2.5-.4,0-.8.5-.7.9q.4.4.8,0c.4,0,.8-.5,1.1-.9v-.4ZM139.9,259.1c0-.4-.4-.4-.4-.4-.4.4-.8.5-.7.9s.4.4.4.4c.4-.4.8-.5.7-.9ZM185,209.4c0,.4-.4.4-.3.8l-1.1,1.3c0,.8-.3,1.2-1.5.9-1.5.9-3.5,1.1-5,2.4-.8.5-1.2.5-2,.6-1.6.1-2.8.6-4.3.8-2.8.2-5.9,1.3-8.7,1.6-2,.6-3.1,1.5-5.1,1.3-.8,0-1.6.5-2.3,1-1.6.5-3.6.3-5.5,1.3q-.4,0-.8-.3c-1.2.1-2-.2-3.2-.1-.8,0-1.2-.3-1.6-.3-.4-.4-.9-.7-.9-1.1.4-.4.8,0,1.2-.1.4-.4,1.1-.9,2-.6q.4.4.4,0c1.5-.9,3.2-.3,4.3-1.2.8-.5,1.2-.1,2-.2,1.2-.5,2.8-.2,3.9-1.1.4-.4,1.2-.5,2-.6h1.2c1.5-1,3.1-1.2,4.7-1.3,1.5-.9,3.5-1.1,5.5-1.7,1.6-.5,2.7-1,4.3-.8h.4c2.7-1.5,5.9-1.8,8.6-2.8h.8c.4-.1.8-.1,1.2.2ZM143.1,153.2c.4.4.5.8.9.7.4,0,.4-.4.3-.8,0-.4-.5-.8-.8-.3-.4,0-.4.4-.4.4ZM145.2,341.8q0-.4-.4-.4c-.4,0-1.2.5-1.1.9.4.4.9,1.1,1.3,1.1.8,0,.3-.8.3-1.6ZM146.3,262.6c0-.4-.4,0-.8,0-.8,0-1.2.5-1.1,1.3s0,.4.4.4c.8-.5,1.6-.5,1.5-1.7ZM146.5,366.1s0-.4-.4-.4c-.4.4-.7.9-.3,1.2h.4c.4,0,.4-.5.3-.9ZM145.9,147.8s0,.4.4,0c0,0,.4,0,.4-.4,0-.4-.4-.4-.4-.4-.4,0-.4.4-.3.8ZM146.4,351.7q.4,0,.8-.5l-.4-.4c-.4,0-.4.4-.4.4-.4.4,0,.4,0,.4ZM149.6,360.3s.3-.8-.4-.4c-.4,0-1.2.5-1.1.9l1.3,1.1c1.2-.5,0-.8.3-1.6ZM148.9,141.1c0,.4.1,1.2.9,1.1.4-.4.8-.5.7-1.3-.4-.4-.8-.3-1.2-.3-.4,0-.8,0-.4.4ZM149.5,157.1c0,.4.5,1.2.9,1.1.4,0,.8-.5.3-.8,0-.4-.5-.8-.9-.7s-.4.4-.4.4ZM151.5,345.2c0-.4-.9-.7-1.3-.7-.4,0-.8.5-.3.8,0,.4,0,.8.9.7.4,0,.8-.5.7-.9ZM151.8,266.1c0-.4-.5-.8-.9-.7-.4,0-.7.9-.7,1.3,0,.4,1.3,1.1,1.7.7.4-.4-.5-.8-.1-1.2ZM151.6,369.7c0-.4-.4-.4-.4-.4-.4.4-.8.5-.7.9,0,0,0,.4.4.4.4,0,.4-.4.7-.9ZM152.4,355.6q.4,0,.8-.5c0-.4-.4-.4-.4-.4-.4,0-.8.5-.7.9h.4ZM154.4,145c.8,0,1.5-.9,1.5-1.7-.4-.4-.9-.7-1.2-.3-1.2.1-.3,1.2-.7,1.7q0,.4.4.4ZM202.5,202.6c-.8.5-1.1.9-1.9,1-3.6.7-7.1,1.8-10.6,2.9-2,.6-4,.3-5.9.9-2.3,1-4.7,1.6-7,2.2-2.8.6-5.5,1.7-7.8,2.3-.8,0-1.2.1-.9-.7v-.4s-.4,0-.4,0c-.7,1.7-2.3,1.8-3.4,1.9-.4,0-.8.5-1.2.5-1.2.5-1.9,1-2.8.2-.8-.3-1.7-.7-2.2-1.8-.9-1.1-1.4-2.3-1.1-3.5.4-.4,0-.4,0-.8,0-.8-1.3-1.5-.6-2.8.4-.4,0-.8-.5-1.2-.9-.7-1.4-1.9-1.9-3l.2-2.8c0-.4.3-.8.7-.9.4.4.8.3,1.2.3,1.6-.5,2-.2,2.5,1.4,0,.4,1.3.7,2.1.6.8-.5,2-.6,2.8-.2.4,0,1.2-.1.9.7l.4.4c.4,0,.4-.4.4-.4,0-.4.4-.4.3-.8.4,0,.8,0,.8.3.5.8,1.7,1.1,2,.2,1.1-1.3,2.7-1.4,4.2-2.8.8-.5,2,.2,2.9.6.9.7,2.1,1,2.6,2.2.5.8,1.3,1.1,2.5.6,1.1-.9,2.8-.2,3.7.5.9,1.1,2.1,1.4,3.3,1.3l2-.2c.8,0,2-.2,2.5,1,.4.4.8.3,1.6.3q.4,0,0-.4c0-.4.3-.8.7-.9.4,0,.8.3.9.7-.4,0-.4.4-.3.8.4.4.8.3,1.2-.1,1.1-.9,2.3-1.8,3.9-1.1.8,0,1.2.3,2,.2.4,0,.4.4.5.8ZM156.1,324.4c-.4-.4-.8-.3-1.6-.3,0,0-.4,0-.4.4.5.8.5,1.2,1.3.7.4,0,.8-.5.7-.9ZM155.4,160.2q.4.4.8,0s.4,0,.4-.4,0-.4-.4-.4c-.4,0-.8.5-.7.9ZM155.8,183.4h.8c.4.3.5.7.1,1.1,0,0-.4.4-.8.5-.4,0-.4-.4-.5-.8s0-.8.3-.8ZM158.1,270c-.5-.8-.8-.3-1.2-.3-.4,0-.8.5-.7.9.4.4.8.3.8.3.4,0,1.2-.5,1.1-.9ZM159.2,359.4c.8,0,.7-.9.3-1.2,0-.4.3-1.6-.9-1.1-.8,0-1.5,1.3-1.5,1.7.8.3,1.3.7,2.1.6ZM158.3,294.4c0-.4-.4-.4-.4-.4-.4,0-.8.5-.3.8,0,0,0,.4.4,0q.4,0,.4-.4ZM206.5,285.8c.6,2,1.1,3.9,1.3,5.9.1,1.6.6,2.8,1.2,4.3l2.1,10.7c.5,1.6.2,2-1,2.5-2,.6-3.5,1.5-5,2h-.4c-2.4-.2-3.9,1.2-5.9,1.4-.8,0-1.2.5-1.5.9-.4.4-.8.5-.8,0-.4-.4,0-.4.4-.4.3-.8.6-2.1,2.2-2.2q-.4,0-.4-.4l-4.4.4.4-.4c0-.4.4-.4.3-.8,0,0,.8-.5.3-.8-.4-.4-.8,0-1.2.1,0,0-.4,0-.4.4-.4,0-.4.4-.8,0-.4-.4-.9-.7-.5-1.2.4-.4.7-1.3.3-1.6-.8-.3-1.2-.3-2,.6,0,0,0,.4-.8,0q-.4-.4-.1-1.2,0-.4-.4-.4c-1.6.1-1.7-1.1-2.5-1.4v-.8c.2-1.2-.2-1.6-1-1.1h-.8q-1.2.6-1.7-.6c0-.8-.4-.4-.8-.3-.4-.4-.8-.3-1.2-.3s-.8,0-.9-.7c0-.4-.5-.8-.9-.7-.8,0-.4.4-.3.8.1,1.2-.3,1.6-1.5,1.7h-1.2c-.4.1-1.2.2-1.2-.2.4-.4.8-.5,1.2-.5h.8c.4-.1.8.3.8-.1,0-.4-.5-.8-.9-.7-1.2.1-2.9-1-4.4,0-2.3,1-4.7.8-6.7,1.4h-.8c-.4.5-.8.5-1.2.2,0-.4.3-.8.7-.9.4-.4.8-.5.7-.9h-.8c-.4-.3-.8-.3-1.6-.2-.4.4-1.2.1-2,.2-.8,0-1.3-.7-1.7-1.5,0-.8-.6-2,.6-2.9.8-.5,1.2-.5,1.6-.5,1.6-.5,3.6-.7,5.1-1.6h.4c.9,1.1,1.6.2,2.4-.2,2.3-1,4.3-1.6,6.6-2.2,1.3,1.1,2-.2,3.1-1.1.8-.5,2-.6,3.2-.3.8,0,1.2-.5,2-.6.8,0,1.5-.9,2.4-.6.4,0,.8-.5,1.2-.5.4-.4.7-.9,1.2-.5.5.8.8.3,1.2-.1,1.5-.9,3.1-1.1,4.7-1.2h1.2c1.9-1.5,3.8-2,6.2-2.3h.8c1.5-1,3.2-.3,3.3,1.2ZM162.7,249.1c0-.4-.4-.4-.4,0q-.4,0-.4.4c-.4,0,0,.4,0,.4.4-.4.8-.5.7-.9ZM164.4,304.4s0-.4.4-.4q.4,0,.4.4c.4.4,0,.4,0,.4-.4.4-.8,0-.8-.3ZM170.2,261.3c0-.4-.4-.4-.8-.3-.4,0-.8.5-.7.9s0,.8.4.4c.4,0,.8-.5,1.1-.9ZM171.8,247.1c0-.8-.4-.4-.8-.3q-.4,0-.4.4s0,.4.4.4c.4,0,.8,0,.8-.5ZM171.1,174.9c0,.4.4.4.4.4.4,0,.8-.5.7-.9q0-.4-.4-.4c-.4,0-.4.4-.7.9ZM175.4,297c0-.4-.5-.8-.9-.7s-.8.5-.7.9c.4.4.5.8,1.3.7.4,0,.4-.4.3-.8ZM175.3,305q-.4,0-.4-.4c-.4-.4.4,0,.4-.4.4,0,.8,0,.8.3,0,.4-.4.4-.8.5ZM176.2,265.2c0-.4-.4-.4-.8-.3-.4,0-.4.4-.3.8,0,.4.4.4.8.3,0,0,.4,0,.3-.8ZM180,244.4c0,.4.5.8.9.7s.8-.5.4-.4c0-.8-.8-.3-1.3-.7,0,0-.4.4,0,.4ZM180.6,347.1c-.8,0-.4.4-.7.9q0,.4.4.4c.4,0,.8-.5,1.1-.9,0-.4-.4-.4-.8-.3ZM180,303.8c0-.8.3-.8.7-.9.4.4,1.2-.5,1.2-.1.5.8-.3,1.2-.7,1.3-.8,0-1.2.1-1.2-.3ZM180.8,202.5c-.4,0-.8,0-.7.9l.4.4c.4-.4,1.2-.5,1.1-1.3,0,0-.4-.4-.8,0ZM184.1,277.7c0-.8-.9-.7-1.7-.7-.4,0-.8.5-.4.4.4.4.1,1.6,1.3,1.1.4,0,1.2-.5.7-.9ZM184,253.3c0-.4-.8-.3-1.2-.3s-.3.8-.3,1.2q0,.4.4.4c.4-.4,1.2-.5,1.1-1.3ZM184,262.9c.4.4.5,1.2.9.7q.4,0,.4-.4c-.4,0-.5-.8-.9-1.1q-.4,0-.8.5s0,.4.4.4ZM188.4,335.6c0-.4-.4-.4-.8-.3-.8,0-1.2.5-1.1,1.3q0,.4.4.4c.8,0,1.2-.5,1.5-1.3ZM188.5,272.1c0-.8-.9-.7-1.3-.7-.8,0-.3.8-.3,1.2,0,.4,0,.8.8.3.4,0,.8-.5.7-.9ZM189.6,257.6c-.5-.8-1.4-1.9-2.1-1.4-.8,0-.3.8-.3,1.2,0,.4,1.7,1.1,2.1.6.4,0,.4-.4.4-.4ZM190.5,282c-.4-.4-.5-1.2-1.3-1.1-.4,0-.4.4,0,.8,0,.4.1,1.2.5.8.4,0,.8-.5.8-.5ZM190.4,267.1c0-.4.4-.4.3-.8,0-.4-.4-.4-.8-.3-.4,0-.4.4-.4.4,0,.4.5.8.9.7ZM193.6,275.7c0-.4-.4-.4-.8-.3s-.8.5-.7.9q0,.4.4.4l1.1-.9ZM199.6,294.4c.4-.4,0-.4-.4-.4-.4,0-.8.5-1.1,1.3,0,0,.4.4.8.3.4-.4.7-.9.7-1.3ZM209.9,311.2c0,.4-.4.4-.8.5s-.4-.4-.4-.4c.4-.4.8-.5,1.2-.5v.4Z"/>
          <path class="st0" d="M252.2,289.4c-2.4-.2-4.8,0-6.8-.2-.4,0-1.2.1-1.2-.3,0-.4-.4-.4-.8-.3-1.5.9-3.6.3-5.2,0-.4,0-.9-.7-1.6-.3-.4.4-.8,0-.8-.3-.5-.8-.5-1.6-.6-2.4.2-2,0-4-.5-5.6-.6-2-.3-3.6-.5-5.2.1-3.2-.6-6.4-.8-9.6l-.7-7.6c-.1-1.2-.6-2-.7-3.2.2-2,0-4.4-.6-6.4-.1-1.2.2-2-.3-3.2l-.7-7.6c-.7-3.9-.3-8.4-1.1-12.8-.6-2,0-3.6-.9-5.5-.5-.8-.6-2-.3-3.2.3-1.2-.2-2.8-.4-4.4.2-2,1-2.5,2.6-1.8.8.3,1.6-.1,2-.6,1.2-.5,2.4-.6,3.2-.7,2-.2,3.7.5,5.2-.5.8-.5,1.2-.5,2-.2h.4c3.5-1.1,6.7-1.4,10.3-2.1,1.6-.5,3.2-.7,4.4,0q.4.4.5.8c-.4,0,0,.4,0,.4.4.4.8.3.9.7-.2,2,1,2.3,2.6,2.6.8.3.9,1.1,1.3,1.5,0,.8.1,1.2.9.7h.8c.6,1.9,3.4,2,3.6,4.4,0,.4.8.3,1.2.3.4-.4.8-.5,1.2-.5.4,0,.8,0,.8.3-.7,1.3.5.8.9.7.4.4.8.3.8.3,1.4,2.3,3.8,2.5,5.2,4,.9.7,1.3,1.1,1,2.3,0,.8.1,1.6.6,2.4.5.8.5,1.2.2,2-.3,1.6.2,2.8.4,4.4l.3,3.6c.5,1.2-.2,2.8.8,4.3.6,2.4.8,4.7.2,7.2l.4.4c1,2.7.9,5.9.8,8.8.1,1.2.6,2.4.7,3.6-.2,2,0,4.4.2,6.4.1,1.6.7,3.6.5,5.2.2,2.4.9,5.1.7,7.6v1.2c1,1.5.8,3.6.6,5.2l.2,2c.1,1.2-.3,1.6-1.5,1.7h-8c-1.6,0-3.6-.2-5.2,0-5.2-.3-10.5-.7-15.3-.7-.8,0-1.3-1.1-1.7-.7-.8.5-1.6.5-2,.6ZM239.1,176.6c-.6-2-.3-4-.5-6l-.5-6c0-4-.3-7.6-.6-11.2-.1-1.6.1-3.2.8-4.9.4-.4.3-.8.3-1.6-.5-.8.3-1.6,1.1-1.7l2.3-1.4c.4,0,.8-.5,1.2-.1.9.7,1.6.3,2.4-.2.8-.5,1.9-1,2.8-.6.4.4.8.3,1.2-.1h.8c.5,1.1,1.6.2,2,.2,1.2.3,2.5.6,3.6-.3,1.3,1.5,2,.2,3.2-.3.4,0,.4-.4.8,0,1.2.3,2.8-.6,4,0,.4.4.8.3,1.2-.1.4,0,.8,0,1.6.3,0,.4.8,0,1.2-.1.4-.4,1.1-.9,2-.2.5.8.8.3,1.6-.1.4-.4,1.1-.9,2,.2.4.4.8,0,1.6-.5.8-.5,1.6-.5,2.4-.2,1.2-.1,2.4.2,3.3.5,2,.2,4.1.8,5.1,2.8,1.3,1.5,2.3,3.4,1.7,5.5.1,1.2.6,2,.7,3.2.6,2.4.4,4.8.2,7.2.3,3.2.6,6.4.4,9.6.2,2,.7,3.6.5,5.6v.8c.5.8.6,1.2.2,2-.3.8-.3,1.6.2,2,.9,1.5.6,2.8.4,4.4.2,2.4,0,4.8.2,7.2.1,1.6.7,3.2.4,4.8,0,.8-.3,1.6-.2,2q0,.4-.4.4h-1.2c-.8-.2-1.2-.2-.9-1,.4,0,0-.4-.4-.4-.4,0-1.2.5-1.1.9.5,1.2-.3,1.2-.7,1.3-3.9.7-7.5,1.1-11.5,1.8-2.8.2-5.2.5-7.9,1.1-1.2.5-2,.2-2.8-.2-.8-.3-1.3-.7-.5-1.2.4-.4,0-.8-.5-.8-1.1.9-1.3-.7-1.3-1.1-.5-.8-.9-1.1-1.7-1.5-1.3-.7-2.5-1.4-2.3-3,0-.4-.5-.8-.5-.8-1.3-.7-1.4-2.3-2.3-3.4-.9-1.1-1.8-2.7-1.2-4.3,0-.8-.4-.4-.4-.4-.4.4-.8.5-1.2.1-.9-.7-1.2-.3-2-.2-.8-.3-1.3-.7-1.3-1.5.7-1.7-.6-2-1.4-2.7-.4-.4-1.2-.3-1.3-1.1.4-.4-.4,0-.8,0,0,0-.4,0-.8-.3h-.4c.4,0,.4-.4.4-.4.7-.9,1.5-1.3,2.4-.6h.4c.4,0,.4-.5,0-.4,0-.8-.5-1.2-1.7-.7-.4,0-.8.5-1.2.1,0-.4-.4-.4-.9-.7-.4-.4.4-.4.3-.8.4,0,.8,0,.4-.4,0-.4-.5-.8-.8-.3-1.1,1.3-2.4.2-3.6.7v-.8ZM240.2,285.7c-.8-.3-.9-.7-1.7-1.1,0,0-.4,0-.4.4.8.3.1,1.2.9,1.5.4,0,.8-.5,1.1-.9ZM240.5,242.7c0-.4,0-.8-.9-1.1,0,.4-.8.5-.3.8,0,.4.5.8.9.7.4.4.4,0,.4-.4ZM240.1,252c.4,0,1.2-.5,1.1-.9,0-.8-.5-.8-.9-1.1-.8.5-.7.9-.7,1.3,0,.4,0,.8.5.8ZM241,166.3c0,.4.4.4.4.4.4-.4,1.2-.5,1.1-.9.4-.4,0-.4,0-.4-.8.5-1.2.5-1.5.9ZM243.8,280.1c-.4-.4-.8-.3-1.2.5h.4c.4.3.8-.1.8-.5ZM244,246.4c.4.4.5.8,1.3.7q.4,0,.4-.4c0-.4-1.3-1.1-1.3-.7q-.4,0-.4.4ZM247,266.6c.4,0,.8-.5.7-.9,0,0-.9-1.1-1.3-1.1-.4,0-.8.5-.4.4,0,.8.1,1.6.9,1.5ZM250.1,284q0-.4-.5-.8c-.4,0-.8.5-1.1.9,0,.4-.3.8-.3,1.6h.4c.4,0,1.5-1,1.5-1.8ZM303.4,328.7l1,11.2c.7,3.2.6,6.4.8,9.6.6,2.8.5,6,.8,9.2.6,2-.4,4.1-1.9,5.4-1.5,1.3-3.4,2.7-5.4,2.5h-.8c0,0-3.9.8-3.9.8-3.2.7-6.3,1-9.5,1.2-1.2.1-2,.2-3.2-.1-1.2.1-2.8.2-3.9.7h-1.2c-2.4,0-4.4,0-6.8.3-.4,0-1.2.1-1.6-.3-1.6-.3-3.6.3-5.6.5-1.6-.3-3.3-.9-3.8-2.5-1.9-3-2.5-6.2-2.4-9.4-.2-2-.3-4-1.3-5.9,0-.8.7-1.3.2-2-.5-.8-.5-1.6-.2-2.4.3-.8.2-2-.3-3.2-.1-1.6,0-3.6-.9-5.1-.5-.8.3-1.2.3-1.6l-.7-8c0-.8-.2-2-1-2.7v-.8c.6-1.3.6-2.1.4-3.3-.6-2,0-4.4-1.4-6.3,0-.4.3-.8.3-1.6-.1-1.6-.2-2.8-.8-4.3-.1-1.2.2-2.4,0-3.6l-.6-7.2c-.5-1.2-1-2.3-.3-3.6.3-1.6-.3-3.2-.4-4.8,0-.8.3-1.2,1.1-1.3,2.4-.2,4.8-.4,7.3.6.9.7,1.6.3,2.4-.2,1.2-.5,2.4-.2,4,0,.4,0,1.2.3,2,.2.4-.4.8-.5,1.2-.1l.4.4c.7-.9,2-.2,2.8-.2.8,0,1.6-.1,2,.2,0,.4.4.4.4.4,1.1-.9,2.8-.2,4-.7l2.8.2c1.2.3,2.8-.2,4.1.4,1.2.3,2.4.2,3.6,0h1.2c2.1.9,4.1.3,6,.2,1.6.3,2.9.6,4.5.4.4,0,.4.4.9.7.6,2,.3,3.6.5,5.6.7,4,.7,8.4,1.5,12.7.5,1.2,1,2.7.3,4-.4.4,0,.4,0,.8.6,2,.4,4.4.2,6.4,0,.8.5,1.6,1,2.3.1,1.6-.2,2.8,0,4.4ZM249.8,183.7c.4.4.5.8.5.8-.4.4-.3.8,0,.8.4,0,.8-.5,1.1-.9.4,0,.8-.5.8-.5,0-.8-.9-1.5-1.3-1.5-.8-.3-1.2-.3-1.2.1-.3.8-.7,1.3.1,1.2ZM251.5,281.9c0-.4-.4-.4-.8-.3-.4,0-.8.5-.7.9,0,.4.4.4.4.4.4-.4,1.2-.5,1.1-.9ZM251.4,165.8c.4.4.5.8,1.3.7-.4-.4-.5-1.2-.5-1.2-.4,0-.8.5-.8.5ZM255.6,263.8c-.3,1.2.5.8.9.7.4-.4,1.1-.9-.1-1.2-.4,0-.8,0-.8.5ZM256.5,264.6c0,.4-.3.8.5,1.2l.4-.4c0-.4-.4-.4-.9-.7ZM258.4,351.5q-.4,0-.8.5s0,.4.4.4c0-.4.4-.4.8-.5q0-.4-.4-.4ZM259.4,248.3c-.3.8.1,1.6-.6,2.1v.4c.8-.5,1.2-.5,1.5-1.3,0-.4-.5-.8-.5-.8,0-.4-.4-.4-.4-.4ZM259.4,146.3c0,.4.4.4.4.4.4-.4.8,0,.7-.9h-.4c-.4,0-.8.1-.8.5ZM260.3,216.5c.4.4.1,1.2.9.7.4,0,.8-.5.7-.9-.4-.4-.9-.7-1.3-.7-.4,0-.4.4-.3.8ZM262.5,186.6c.4.4.8.3,1.2.3q.4.4.4,0c-.4-.4-.9-1.1-1.7-1.1,0,0-.4,0-.4.4-.4.4,0,.4.4.4ZM262.4,337.5c.4,0,.8,0,.8-.5,0-.4-.5-.8-.9-.7-.4,0-.4.4-.3.8,0,.4,0,.8.4.4ZM264.1,288c-.5-.8-.5-1.2-1.3-1.1-.4,0,0,.4,0,.4,0,.8-.3,1.2.5,1.2.4,0,1.2-.1.8-.5ZM263.9,244.3c-.4,0-.8,0-.4.4,0,.4.1,1.2.9.7q.4,0,.4-.4c0-.4-.5-.8-.9-.7ZM265.2,254.6c.4,0,.4-.4.3-.8,0-.4,0-.8-.5-.8-.8,0-1.2.5-1.1.9l1.3.7ZM265.2,323.2c.4,0,.8,0,.7-.9,0-.4-.5-.8-.8-.3-.4,0-.8,0-.8.5,0,.8.9.7.9.7ZM266.4,263.3c.4-.4.3-.8,0-.8-.8.5-1.2.5-1.1.9l1.7,1.1h.4s0-.4,0-.4c0-.4-.8-.3-.9-.7ZM266.7,271.7c-1.2.1-1.1.9-1.1,1.3,0,.4,1.4,1.9,1.4,1.9.8-.5,1.5-1.3,1.5-1.7-.1-1.2-.9-1.5-1.7-1.5ZM266.4,190.6c0,.4.1,1.2.9,1.5.8,0,1.5-1.3,1.5-1.7,0-.8-1-1.9-1.7-1.5-.4,0-.7.9-.7,1.7ZM267.3,200.2c0,.4.5.8.1,1.2,0,.4.4.4.4.4.4-.4,1.2-.5,1.1-.9.3-.8-.1-1.2.2-2h-.4c-.8-.3-1.6.6-1.5,1.4ZM269.2,350.2h-.4c-.4,0-.8.1-.8.5s.4.4.4.4c.4-.4.8-.5.7-.9ZM268.8,308.9c.8.3.7-.9,1.1-.9,0-.8-.5-1.2-.9-1.1-.8,0-.7.9-.7,1.7-.4.4,0,.4.4.4ZM269.6,360.2q0-.4-.4-.4c-.4,0-.8,0-.7.9h.4c.4,0,.8-.1.8-.5ZM269.9,258.2c0,.4-.4.4,0,.8h.4s.4,0,.4-.5c0-.4-.4-.4-.8-.3ZM271.6,267.7c-.4,0-.8.5-.7.9h.4c.4,0,.8-.1.7-.9h-.4ZM271.2,185.8c0,.4.4.4.4.4.8,0,1.2-.5,1.9-1v-.4c-.5-.4-.9-.7-1.3-.3-.8.5-1.1.9-1.1,1.3ZM271.6,194.6c0,.4.1,1.2.9,1.1.8-.5,1.6-.5,1.5-1.3.3-.8-.9-.7-1.3-.7-.4,0-1.2.1-1.1.9ZM272.4,345.9c.4,0,0,.8.4.4q.4,0,.4-.4t-.4-.4-.4.4ZM275,302.7c-.8,0-.5-1.2-1.3-1.1-.4,0-1.2.5-1.1.9,0,.8.9,1.1,1.3,1.1.4,0,.8-.5,1.1-.9ZM274.8,355.3c-.5-.8-.9-1.1-1.3-1.1-.4,0-.8,0-.8.5.4.4.5,1.2,1.3,1.5.4,0,.8-.5.7-.9ZM275.5,170.2s0,.4.4.4.4-.4.8-.5c0-.4-.4-.4-.4-.4-.4,0-.8,0-.8.5ZM275.5,179.8s0,.8.5.8c.8,0,2.3-1.4,1.9-1.4,0-.8-.9-1.1-1.3-.7-.8,0-1.2.1-1.1,1.3ZM276.5,282.1c.5.8.5,1.2,1.3,1.1.4,0,.8,0,.8-.5,0-.8-.9-.7-1.3-1.1-.4.4-.8.5-.8.5ZM276.5,199.8c.8,0,1.3.7,2.1.6.4,0,.8,0,.8-.5-.4-.4-.5-1.2-.9-1.5-.8,0-1.2.5-1.5.9-.4,0-.4.4-.4.4ZM276.7,229.5c-.4,0,0,.4,0,.4.4-.4,1.2-.5,1.1-.9s0-.4-.4-.4c-.4,0-.8,0-.7.9ZM281,155.2c-.4,0-.8,0-.8.5,0,.4.4.4.4.4.4,0,.8,0,.8-.5,0-.4-.4-.4-.4-.4ZM281.2,267.2c-.4,0-.8-.3-.8.5,0,0,.4.4.4,0,.4,0,.8,0,.8-.5,0-.4-.4,0-.4,0ZM280.8,185.4c0,.4.4.4.8.3.8,0,1.2-.5,1.1-.9,0-.4-.5-.8-.9-.7-.4.4-1.2.5-1.1,1.3ZM281.1,174.1v1.6c.5,0,.9-.5,1.3-.5,0,0,.4-.4,0-.8,0,0-.4,0-.4-.4,0-.4.7-.9,0-.8-.8,0-.8.5-.7.9ZM283.2,194s0-.4-.4-.4c-.4.4-.8.5-.7,1.3-.4,0,0,.4,0,0,.8,0,1.2-.1,1.1-.9ZM282.4,345s0,.4.4.4c.4,0,.8,0,.8-.5l-1.3-.7s-.4.4,0,.8ZM285.2,364h-.4c-.4,0-.8.1-1.2.5q0,.4.4.4c.4,0,.8-.5,1.1-.9ZM288.4,340.1c-.4-.4-.5-.8-1.3-.7-.4,0-.8,0-.8.5,0,.4.9.7.9,1.1.8,0,1.2-.5,1.1-.9ZM288,349.8c-.4,0,0-.8-.9-.7q-.4.4-.3.8c.4.4.8.3,1.2.3,0,0,.4,0,0-.4ZM293.2,354.1c.4-.4,0-.4-.4-.4,0,0-.4.4,0,.4v.4c.4,0,.4-.4.4-.4ZM293.4,310.7c.4,0,.4-.4.7-.9h-.4c-.4,0-.8.1-.7.9h.4ZM293.8,319.9c0,.4.4.4.4.4.4-.4.8-.5.7-.9h-.8c0,0-.4.1-.4.5ZM296.1,295.6c.4.4,0,.8.9,1.1.4,0,.8-.5.7-.9,0-.8-.9-1.1-1.3-1.1s-.4.4-.3.8ZM298,349.3c-.4-.4-.5-.8-.9-.7s-.8,0-.8.5c0,.4.8.3,1.2.3,0,.4.4,0,.4,0ZM303.5,352.8c0-.4-1.3-1.1-1.7-1.1-.4.4-.8.5-.7.9-.4.4.9,1.5.9,1.5.8,0,1.5-.9,1.5-1.3ZM301.9,343.3c-.4,0-.8.5-.7.9,0,0,0,.4.4.4.4,0,.4-.4.7-.9l-.4-.4Z"/>
          <path class="st0" d="M338.9,308c-.4.4-1.2-.3-2,.2l-.8-.3c-.5-.8-1.2-.3-1.6.1-.3.8-.4.4-.8,0,0-.4-.1-1.6-1.3-.7q-.4,0-.4-.4c0-.8-.5-.8-.9-.7-.8.5-1.2.1-1.5.9-.4.4-.3,1.2-1.1.9-.8-.3-1.3-1.1-1.4-1.9-.5-1.2-.2-2.4-.3-3.6s-.6-2.4-.7-3.6c-.1-1.2-1-2.7-.4-4.4-.5-.8-.5-1.6-.6-2.4-.7-3.2-1-6.3-1.2-9.5.2-2,0-4-.2-6.4v-.8c.7,0,.3-.4-.1-.8-.5-.8.3-.8.7-1.3.4,0,.8,0,.8.3,0,.8.5.8.4.4l2.7-1.4s.4-.4,0-.4c-1.2.1-.8-.3-.5-1.2v-.8c1.2.7,1.5-.1,1.9-.6,1.2-.5,2.4-.6,2.7-1.4h.4c.9.7,1.2.3,1.6-.2l.4.4h.8c.7-1.7,1.5-1.4,2.7-1.1.8,0,1.2-.1,1.6-.5.7-.9,2-.6,2.4.2.9.7,1.2.3,1.6-.5q1.1-1.3,2.8-.6c.4.4.8.3.8-.5.4-.4.3-.8.7-.9,1.2-.5,1.9-1.4,3-1.9.4-.4,1.2-.5,1.6-.1.5,1.6,2.5,1,3.4,1.7v.4c1.1-1.3,2.4-1,3.6-1.1.4,0,.7-.9.7-1.3.4-.4.3-.8.7-.9,1.6-.1,3.1-1.1,4.3-1.2.8,0,1.6.3,2,.2,0-.8-.1-1.6,1.1-.9.8,0,1.6-.5,2.4-.6h.4c-.1-1.2.7-1.7,1.4-2.2,1.2-.5,2.4-.6,3.1-1.5.4-.4,1.2-.5,1.6-.5.4.4.8.3,1.2.3,1.2-.5,1.2-.1,1.7,1.1v.4c1.6-.1,2.2,1.8,3.8,2.1.8,0,1.3,1.1,1.7,1.5.5.8-.3,1.2-.7,1.3-2-.2-4,.3-5.9.9-3.2.3-6.3,1-9.5,1.6l-9.1,2h-1.2c0,.1-.4.1-.4.5q.4.4.8,0c.8-.5,1.6-.5,2.4-.2,0,.4.4,0,.8,0,.8-.5,1.5-.9,2.4-.2h.8q0-.5.4-.5c1.6-.1,3.6,0,5.1-1.2.5.8,1.3.7,2,.2.4-.4.4,0,.4.4.5,1.2-.2,2-.1,3.2.6,2,.7,3.6.9,5.5.5.8.2,2,.3,3.2l.4,4.8c.1,1.2.2,2.4.7,3.2.6,2,0,4.4.6,6.4,0,.4,0,.8-.3,1.2h-.4c0-.8-1.3-.7-1.3-1.1,0-.4-.4-.4-.4-.4-1.1,1.3-1.6-.3-2.5-.6-.5-.8-.4-.4-.4,0-.3,1.2-1.1,1.3-1.4,2.1-.4,0-.4-.4-.4-.4q0-.4-.4-.4c-.3.8-1.2.5-1.6.1,0-.4-.4-.4-.4,0l-.4.4q-1.1,1.7-2.4.2c-.5-.8-1.7-.7-2.5-.6q-2,.2-2.2,2.6c0,.4-.3.8-.3,1.2-.4.4-.3.8.1,1.2.5,1.2.1,1.6-1.1,1.3-1.2-.3-1.2.1-1.1.9-.3.8-.2,2-1,2.9s-.7.9-1.6.5c-.4-.4-1.6-.3-2.4.2-.7.9-1.6.5-2.1-.6-.9-.7-1.7-1.1-1-2.3l-.4-.4-.4.4c.5,1.6-1.4,2.1-2.1,3l-1.8,2.6c-.7,1.3-1.8,2.6-3.8,2.7-.8,0-.9-1.5-2-.2ZM386.5,237.1c0,.4,0,.8-.3.8-.8,0-1.5,1.3-2.7,1,0,0-.4,0-.4.4-1.2.5-1.6.5-.9-.7,0-.4,0-.8-.5-.8-.4,0-.4.4-.3.8,0,.4-.3,1.2-1.1,1.3-.8,0-1.2.1-1.3-.7q0-.4-.4-.4c-1.1.9-2-.2-3.3-.5-.4,0-.8,0-1.2.5-.4.4-.8.5-1.6.1-.9-.7-2.1-1.4-3-1.7q-1.2-.3-2,.2c-.7.9-1.5.9-2.7,1-.4,0-1.3-.7-1.6.5-.4.4-.4,0-.4-.4-.5-.8-1.2.1-1.6.1-.3.8-.7.9-1.5.9-.8-.3-1.6.5-1.9,1.4-.3,1.6-1.4,2.5-2.9,3.1-.4,0-.4.4-.8,0-.4-.4.3-.8.3-.8l.4-.4c-.4-.4-.4,0-.8,0-1.9,1-3,2.3-4.5,4-.4.4-.7.9-1.5.9-.8-.3-1.6.1-1.9,1l-1,2.5c-.4.4-.3.8-.7.9-1.1,1.3-1.1,1.7-.9,3.3q0,.8-.7.9c-.8-.3-2-.2-2.3,1,0,.4-.4.4-.3.8-.7.9-1.5.9-2.4.6-.8,0-.9-1.1-.5-1.6-.2-2.4-1.2-4.7-1-7.1v-.4c-.5-.8-1-1.9-.7-2.8-.2-2-.7-4-.9-5.5.2-2.4-.8-4.7-.6-7.2l-.4-.4c0-.8-1-1.9-.2-2.8.4-.4,0-.8-.1-1.2-.1-1.2-.6-2-.7-3.2,0-.4-.5-1.2-.2-2,.4-.4-.1-1.2-.1-1.6-.6-2.4-.8-4.7-1.4-7.1-.1-1.6-.3-3.6-.9-5.5,0-.8.3-1.2-.2-2-.5-1.2-.6-2.8-.7-3.9-.1-1.2.2-2,.2-2.8-.5-1.6-1-2.7-.8-4.3-.1-1.2-.6-2.4-1.1-3.5-.5-.8-.2-2,.1-3.2,0-.8-.2-2-.6-2.4-1-2.3.1-3.2,2.5-3.4h.4c1.2-.5,2.8-.3,3.9-.8,2.8-.6,5.1-1.2,7.5-1.5,2.8-.2,5.5-1.3,8.3-1.1,1.2-.1,2.8-.6,4.3-.8,2.4-.6,4.7-.8,7.1-1.4.4,0,.8,0,.8.3,0,.8.8.3,1.2.3,1.9-1.8,3.9-1.5,6.3-1.8,1.6-.5,3.6,0,5.1-.9.4-.4.8-.5,1.2-.5,1.2-.1,1.2.3,1.7,1.5.6,2,.3,4,1.3,5.9.5,1.2.3,3.2.4,4.4l.2,2.4c1.1,3.1.9,5.9,1.2,9.1,0,0-.4.4,0,.8,1.4,1.9,1.2,4.3,1,6.7.1,1.2.2,2.4.7,3.2.5,1.2.2,2,.7,3.2l.8,9.6c.5,1.2.6,2,.6,2.8.5.8.5,1.6.2,2,0,.4-.4.4,0,.4.9,1.1.2,2.8.7,4,.9,1.5.3,3.2,1.2,4.3ZM331.2,302.6c0-.4-.5-.8-.9-1.1-.4-.4-.8,0-1.2.1,0,.4-.3.8,0,.8.4,0,.9.7,1.3,1.1.4-.4,1.2-.5.7-.9ZM470.3,161.9c-.4.4-1.2.5-1.6.5-4,.3-8.3,1.5-12.3,1.9l-27.8,3.6c-5.9,1.3-12.3,1.9-18.2,2.8-.4.4-1.2.5-1.6.5s-.8-.3-.5-.8q.4-.4,0-.8c-.4-.4-1.2-.3-1.2.1-.6,2.1-2.3,1.8-3.4,1.9-3.6.7-6.7,1-10.3,1.7-2,.2-3.6.7-5.5.9-3.6.3-7.1,1.4-10.3,1.3-.4,0-.8.5-1.2.5-1.5.9-2.8.2-4,.3-.4,0,.3-.8-.5-.8-1.6-.3-3.2.7-5.2.5,0,0-.4.4-.3.8q-.4,0-.8-.3c0-.4-.8-.3-1.2-.3-.4,0-.8,0-.8-.3-.5-1.2-1.6-.3-2,.2q-1.2.1-1.3-.7c0-.4.4-.4.3-.8,0,0,0-.4-.4-.4h-.4c0,.4-.3.9-.7,1.7-.3,1.2-.7,1.3-1.6.5-.9-.7-1.3-1.1-1.6.1,0,.4-.4.4-.8.5,0,0-.4-.4-.5-.8.3-.8,0-.4-.4,0-.4,0-.8.5-1.1.9-1.1.9-2.4.2-2.5-1.4,0-.4.3-.8,0-.8-.4-.4-.8,0-.8.5-.4.4-1.2.5-1.5.9,0,.4-.4.4-.4.4-.8-.3-1.2-.3-2,.2-.8,0-2,.6-2.8.2-1.2-.3-2,.2-2.7,1s-1.9,1-2.8.2c-.4-.4-.8-.3-1.2.5.4,0,.8-.5.8,0v.4c-.4,0-.8,0-.8-.3-.8.5-2,.2-2.3,1-.4.4-.8,0-.8-.3.3-1.2-.6-2.4-.7-3.9,0-.8-.1-1.6.2-2.4l-.2-2c-.5-1.2-.2-2.8-.8-4.3-.1-1.2.2-2.8-.4-4.4-.4-.4,0-.8-.1-1.6l-.4-4.4c-.5-1.2-.6-2.4-.3-3.6-.2-2-.3-4,0-5.6.3-1.2-.6-2.8.4-4.1-.9-1.5.6-2.9,0-4.4,0-.4.3-.8.7-.9,1.5-.9,3-1.9,4.2-2.8.4,0,.8-.5,1.2-.1.9.7,1.6.3,2.4-.2.8-.5,1.9-1.4,3.2-.7.4.4.8,0,1.2-.1.8-.5,1.5-1.3,2.4-.6.4.4.8,0,1.2-.1.8-.5,1.5-.9,2.4-.2,0,.4.4,0,.8,0,.8-.5,1.2-.5,2-.2,1.2.3,2.9.6,3.6-.3,1.9-1,3.2-.7,4.8-.4,1.2.3,1.6.3,2.4-.2.8-.5,1.2-.5,2-.2,0,.4.4.4.4.4.8-.5,1.6-.5,2.4-.2.4.4.8,0,1.6-.5.4,0,.8-.5,1.6-.1.9.7,1.2-.1,2-.2.4-.4.7-.9,1.2-.1.5.8.8.3,1.2-.1.8,0,1.2-.5,2-.2.4.4,1.2-.1,1.6-.1.4-.4,1.1-.9,2-.2.4.4.8,0,1.2-.1.8-.5,1.2-.5,1.6-.1.4.4.8.3,1.2.3.7-.9,1.6-.1,2.4-.6l4-.3c2-.2,3.6,0,5.1-1.2.9.7,2.4-.2,3.3.5l.4.4c1.5-1.3,3.2.1,4.3-.8h.4c.9,1.1,1.6.2,2.4-.2h.8c1.3.6,2.4.1,3.3.4,1.2-.1,2.4.2,3.6,0,.8,0,1.2-.5,1.6-.1q.4.4.8.3c.7-.9,1.5-.9,2.4-.2,0,.4.4.4.4.4,1.5-1.3,2.4-.2,3.7.5h.4c.8-.5,1.6.2,2,.2,1.2-.5,2.4.2,3.2.1,1.2.3,2.4-.2,3.7.5.4.4,1.6-.1,1.7.7.4.4.8,0,1.2-.1.8-.5.7-.9,1.2.3,0,.4,1.3,1.1,1.7,1.1,1.2-.1,1.6.3,2.1.6,1.7,1.1,3.4,1.7,5,2.4.8,0,1.3.7,2.1.6,1.3,1.5,3.3,1.3,4.2,2.4.5.8,1.3,1.1,1.7,1.5,1.7.7,3,2.5,4.7,3.2h.4c.6,2.3,2.7,2.9,3.7,5.3.5.8,1.7,1.1,2.2,1.8,1.4,2.3,2.8,4.6,4.2,6.5v.8c.2,1.2.3,2.4,1.1,3.1.8.3.1,1.2-.3,1.2ZM333.3,271.5q-.4-.4-.8,0c-.4,0-1.2-.3-1.2.1,0,.8.8.3,1.2.3,0-.4.4-.4.8,0,0,0,.4.4.4,0,.4-.4,0-.4-.4-.4ZM331.4,276.9q0,.4.4.4c.4,0,.4-.4.4-.4.4-.4,0-.4-.4-.4,0,0-.4,0-.4.4ZM335.1,296.6s-1.3-1.1-1.3-.7c-.4,0-1.2.1-1.2.5,0,.4,1.3,1.5,1.3,1.5.4,0,1.2-.5,1.1-1.3ZM334.6,143.3c-.4-.4-.8-.3-.8-.3-.4,0-.8.5-.7.9-.4.4,0,.4.4.4l1.1-.9ZM335,153.3c0-.4-.4-.4-.8-.3-.4,0-.8,0-.8.5s0,.4.5.8l1.1-.9ZM335.1,171.8c.4,0,.8,0,1.2-.5,0-.4-.4-.4-.4-.4-.4,0-.8,0-1.2.5,0,.4.4.4.4.4ZM334.9,271.4q0,.4.4.4c.4-.4,1.2-.5,1.5-1.3,0,0-.4,0-.4-.4h-.8c-.4.5-.7.9-.7,1.3ZM336.5,302.5c0-.4,0-.8-.5-.8-.4,0-.4.4-.3,1.2,0,0,0,.4.4.4.4,0,.4-.4.3-.8ZM337,202.9c.4,0,.8-.5,1.1-.9-.8-.3-1.2.1-1.6.5q0,.4.4.4ZM337.7,271.1c0,.4.4,0,.8,0,.4-.4.8-.5.8,0,.9.7,1.6.3,2.4-.2.4,0,.8-.5,1.6-.5,1.2-.5,1.6-.1,1.3,1.1,0,.4,0,.8.5.8s1.2-.1,1.6-.5c.4-.4.3-.8-.5-1.2v-.4c-.2-1.6-1-1.9-2.2-1.4-1.1.9-1.9,1.4-3.1,1.1-1.2.5-2,.6-2.7,1q-.4,0-.4.4ZM339.7,211.5c0-.4-.4-.4-.8-.3l-.4.4c0,.4.4.4.4.4.4,0,.8,0,.8-.5ZM338.8,187.5s1.3,1.1,1.7,1.1c.4,0,.4-.4.7-.9-.4-.4-.9-1.1-1.7-1.1l-.7.9ZM342.2,176q-.4-.4-.8-.3c-.8-.3-1.2.1-1.2.5s0,.8.5.8c.4,0,1.2-.5,1.5-.9ZM341.2,196.1q-.8,0-.7.9h.4c.4,0,.8-.1,1.1-.9-.4-.4-.8-.3-.8,0ZM341.5,277.2c.4,0,.8,0,.4-.4q0-.4-.5-.8t-.3.8c0,.4,0,.8.4.4ZM343.4,207.6c.4,0,.4-.4.3-.8,0-.4-.9-1.1-1.3-1.1-.4,0-.8,0-1.1.9,0,0,1.7,1.1,2.1,1ZM343.5,286.3c0-.4-.1-1.6-1.3-1.1-.4,0-.4.4-.3.8,0,.4.1,1.2.9,1.1.4,0,1.2-.5.7-.9ZM394.1,314.8l.5,5.6c-.2,2.8,0,5.2.3,8,0,.8-.2,2,1,2.7v.4c-.6,1.7.3,3.2.4,4.4.2,2,.7,4-.3,6v.8c0,2.8.2,6,0,8.8.1,1.2-.2,2.4-.5,3.7-.3.8-1,2.1-1.8,2.6-1.5,1.3-3,2.7-5,2.4h-.8c-2,.6-4.3.9-6.7,1.1-2.8.2-5.6,0-8.4.3-.4,0-1.2.1-1.6.5h-1.6c-1.6-.1-3.6,0-5.2.2l-5.2.5c-2.4.2-4.4.4-6.8-.2-1.3-.7-2.9-1-3.8-2.1q-.4-.4-.5-.8c-.1-1.2-.6-2.4-1.5-3.5-.5-1.2-.2-2.4-.7-3.6-.6-2.8-1.3-5.5-1.1-8.3-.2-2.4,0-4.4-1-6.3,0-.8.3-1.2.2-2,.3-1.6-.6-2.8-.8-4.3.3-1.6.2-2.8,0-4.4.3-.8-.2-2-.2-2.8-.6-2,0-4-.6-6.4-.1-1.2-.6-2.8-.3-4,0-.8.3-.8.7-1.3,1.2-.5,1.9-1.4,3.2-.7l2.4-.2c1.1-.9,2.3-1,3.5-1.5.8,0,1.2-.1,1.1-.9,0-.8.3-.8.7-.9.8.3,1.2-.1,1.1-.9.3-.8.7-1.3,1.5-.9.4.4.8.3,1.6.3.8,0,1.7,1.1,2.4.2,1.7,1.1,3.7.5,4.6,2.4.9.7,2,.2,2.8-.2v-.8c-.5-.4-.2-1.2.3-.8,1.7.7,3.7.5,5,2,0,.4.4,0,.4,0,1.1-1.7,2.4-.6,3.2-.7.8,0,1.7.7,1.3,1.5,0,.8.9.7,1.3,1.1.4,0,.4-.4.3-.8.3-.8,1.2-.5,1.6-.1,1.7.7,3.3,1.3,4.9,1.2.8,0,.5.8,1.3.7,1.6.3,2.8.2,4.4,0,.8-.5,2.1.6,2.2,2.2ZM345.4,162c-.4-.4-.9-.7-1.7-.7-.4,0-.8,0-.4.4,0,.4.5.8,1.3.7q.4,0,.8-.5ZM345.5,171.7s0-.4-.4-.4-.8.5-.7.9c0,.4.4.4.4.4.4,0,.8-.5.7-.9ZM344.8,191.8c0,.4.4.4.8.3,0,0,.4,0,.4-.4,0-.4-.4-.4-.8-.3,0,0-.4,0-.4.4ZM346.9,280c-.8,0-1.9,1-1.5,1.7,0,.8,1.2.3,1.7.7.8-.5,1.6-.5,1.5-.9,0-.8-1.3-1.5-1.7-1.5ZM347,225.3s-.4,0-.8-.3c-.4,0-.8.5-.7.9q0,.4.4.4c.4,0,.8,0,1.1-.9ZM347.3,233.7l-.4-.4c-.4,0-.8.5-.7.9,0,0,0,.4.4.4.4-.4.8-.5.7-.9ZM348.3,337.2c0-.4-.4-.4-.8-.3-.4,0-.8.5-.7.9,0,.4.5.8.4.4.8,0,1.2-.1,1.1-.9ZM347.2,269.1q0,.4.4.4c.4-.4.8-.5.7-.9,0-.4-.4,0-.4,0-.4,0-1.2.1-.8.5ZM349.3,210.3c0-.8-.9-.7-1.3-1.1-.8.5-.7.9-.7,1.3,0,.8.5.8.9.7.8,0,1.2-.5,1.1-.9ZM350.8,186.1v-.4c-.5-.8-1.3-.7-1.7-1.1-.4,0-.8-.3-1.2.1-.4.4-.3,1.2.1,1.6.4.4,1.3.7,1.7.7.8.3,1.2-.1,1.1-.9ZM350.6,156.8c-.8-.3-.1-1.6-1.7-1.1-.4,0-1.2.1-1.1.9,0,.4,1.7,1.5,1.7,1.5.4-.4,1.2-.5,1.1-1.3ZM350.2,165.6c0-.4-.4-.4-.8-.3-.4,0-.4.4-.3.8q0,.4.4.4c.4-.4.8-.5.7-.9ZM350.1,275.3q0,.4.4.4c.4-.4.8-.5,1.1-1.3h-.8c-.4.1-.8.5-.7.9ZM350.3,268c0,.8.8.3,1.2.3,1.6-.1,2.7-1,3.9-1.1.4,0,.8,0,.8-.5h-.8c-1.2.2-2.4.7-3.2.7h-.8c-.4.5-1.2.2-1.2.6ZM353.3,205.5c0-.4-.9-.7-.9-1.5-.8,0-1.9,1-1.5,1.3.4.4.5,1.2,1.3,1.1.4,0,1.2-.5,1.1-.9ZM353,285c0-.4-.5-.8-.9-.7-.4,0-.8.5-.7.9,0,.4,0,.8.9.7.4,0,1.2-.1.7-.9ZM355.4,160.8c0-.8-.5-1.2-1.7-1.1-.4,0-1.2.5-1.5,1.3.8,0,.9,1.1,1.7,1.1.4,0,1.5-.9,1.5-1.3ZM352.2,294.7c.4.4.5,1.2,1.3.7q.4,0,.4-.4c0-.4-.9-.7-1.3-.7q-.4,0-.4.4ZM354.2,151.6c0-.4-.4-.4-.8-.3,0,0-.4.4-.3.8h.4c.4,0,.8-.1.8-.5ZM355.5,189.7c0-.4-.5-.8-.8-.3-.8,0-.7.9-.7,1.3,0,.4.4.4.4.4.8-.5,1.2-.5,1.1-1.3ZM356.1,361.5c0-.4-.5-.8-.9-.7s-.4.4-.3.8c0,.4.4.4.8.3,0,0,.4,0,.4-.4ZM355.3,270v.4c.5.4.5.8.9.7,0-.4-.1-1.2-.9-1.1ZM358.8,346.4q-.4-.4-.8-.3c-.4,0-.8,0-.8.5,0,.4.4.4.4.4.4,0,.8,0,1.2-.5ZM359.3,155.2c0-.4-.4-.4-.5-.8-.4,0-1.2-.3-1.2.1-.4.4-.7,1.3-.3,1.6.4.4.8,0,1.2-.5.4,0,.8,0,.8-.5ZM358.6,349.2v-.4q-.4,0-.4.4l-1,2.5q0,.4.4.4s.4,0,.4-.4c.4-.4.3-1.6.6-2.5ZM358.7,354.4c-.4-.4,0-.8-.5-.8-.4,0-.4.4-.4.4-.4.4,0,.8,0,.8.4,0,.8,0,.8-.5ZM358.7,184.6c0,.8.1,1.2.9,1.1.4,0,.8-.5.7-.9-.4-.4-.5-.8-1.3-.7,0,0-.8,0-.4.4ZM360,227.4c0,.4,0,.8.5,1.2.4,0,.4-.4.8-.5,0-.8-.9-.7-.9-1.1-.4,0-.4.4-.4.4ZM360.6,275.1q0,.4.4.4c.4,0,.8-.5.7-.9.4,0,0-.4,0-.4-.8,0-1.2.5-1.1.9ZM362.8,236.8c0-.4-.4-.4-.8-.3-.8,0-.8.5-.7.9,0,.4.5.8.9.7.4-.4.8-.5.7-1.3ZM362.4,140.5c-.4,0-.8,0-.8.5,0,0,0,.4.4.4q.4,0,.8-.5,0-.4-.4-.4ZM364.9,159.9c0-.4-.9-1.1-1.7-1.1-.4,0-.8.5-.7,1.3.8,0-.3,1.2.9,1.1.8,0,1.2-.5,1.5-1.3ZM366,222.5c-.4-.4-.9-1.1-1.7-.7-.4,0-.8.5-.3.8.4.4.1,1.2.9,1.1.4,0,1.2-.5,1.1-1.3ZM365.7,278.7c0,.8.1,1.2.9,1.5.4,0,1.2-.5,1.5-.9l-1.3-1.1c-.4,0-1.2.1-1.2.5ZM369.1,345.1c-.4-.4-1.2-.3-1.7-.7-.8,0-.8.5-.7,1.3s0,.8.5.8c.8-.5,1.6-.5,1.9-1.4ZM368.1,154.4c-.4,0-.4-.4-.8,0-.4,0-.4.4-.4.4,0,.4.4.4.4.4.4,0,.8-.5.7-.9ZM367.3,260.9c0,.4,0,.8.8.3,0,0,.4,0,.4-.4,0-.4-.4-.4-.8-.3h-.4s0,.4,0,.4ZM367.5,216.3c.4.4.5,1.2,1.3,1.1,0,.4.4,0,0-.4,0-.4,0-.8-.9-.7h-.4ZM368.9,273.6c.4.4.1,1.2,1.3,1.1.4,0,1.2-.5,1.5-.9,0-.4-1.3-1.5-1.7-1.5-.8,0-1.2.5-1.1,1.3ZM371.1,226c-.4-.4-.9-.7-1.3-.7-.8.5-.3.8-.7,1.3,0,.4.5.8.9.7.4-.4.8-.5,1.1-1.3ZM372.7,202.6c-.4,0-.9-1.1-1.7-.7,0,0-.4,0,0,.4.4,0,.1,1.2,1.3,1.1,0,0,.4-.4.3-.8ZM372.6,339.5c0-.4-.4-.4-.4-.4-.4,0-.8,0-.8.5q0,.4.4.4c.4,0,.8,0,.8-.5ZM373.7,149.9c0-.4-.5-.8-.9-.7,0,0-.4,0-.8-.3,0,0-.8.5-.4.4.4.4.5,1.2,1.3,1.1,0,0,.4-.4.8-.5ZM374.5,159.1c0-.8-.9-.7-1.7-.7-.4,0-1.2.1-.8.5,0,.8.1,1.6,1.3,1.1.4,0,1.2-.1,1.1-.9ZM375.3,168.7c-.8,0-.5-1.2-1.3-1.1-.4,0-.8.5-.7.9,0,.4.1,1.2.9,1.1.4,0,.8,0,1.1-.9ZM375.8,316c-.4-.4-.5-1.2-1.3-1.1-.4,0-.8.5-.3.8,0,.4-.3,1.2.9,1.1.4-.4.8-.5.7-.9ZM376.7,335.6s.4,0,0-.4c0,0,0-.4-.4,0,0,0-.4,0,0,.4h.4ZM377.8,205.8c0-.4-.4,0-.8,0-.4,0-.8,0-.7.9h.8c.4-.1.8-.1.7-.9ZM377.3,260c.8.3.1,1.6.9,1.5.4,0,.8-.5.7-.9-.4-.4-.5-1.2-1.3-1.1,0,0-.8.5-.4.4ZM377.3,164.1c0,.4.4.4.8,0,.4,0,.8,0,.7-.9,0-.4-.5-.8-.9-.7-.4,0-1.1,1.3-.7,1.7ZM378.7,344.2l-.4-.4c-.4,0-.4.4-.8.5,0,.4.4.4.4.4q.4,0,.8-.5ZM380.5,172.2c-.4-.4-1.3-.7-1.6-.3-.8,0-.4.4-.3.8,0,.8.5.8.9.7.4-.4.8-.5,1.1-1.3ZM383.7,158.3c-.4-.4-.1-1.2-.9-1.1,0-.4-.4,0-.8,0-.3.8.5.8.5,1.6,0,0,0,.4.4.4.4,0,.8-.5.7-.9ZM384.5,167.9s-.4-.4-.8,0c-.4,0-.8,0-.7.9,0,.4.4.4.8,0,.4,0,.8,0,.7-.9ZM388,152.3c0-.4-.9-.7-1.3-.7-.8,0-.7.9-.7,1.3,0,.4,0,.8.5.8.8,0,1.6-.5,1.5-1.3ZM387.3,162.8v.4c.4,0,.8-.5.8-.5.4-.4,0-.4-.4-.4q-.4,0-.4.4ZM388.7,353.4c.4-.4,0-.4-.4-.4-.4,0-.4.4-.3.8.4,0,.8,0,.8-.5ZM390.6,172.9c0-.4-1.3-1.1-1.7-1.1q-.4,0-.4.4c-.4,0,1.3,1.1,1.7,1.1,0,0,.4,0,.4-.4ZM399.6,170.5c0-.4-.8-.3-1.2-.3-.4.4-1.2.5-1.1,1.3,0,.4.4.4.8.3.4-.4,1.6-.5,1.5-1.3ZM403.6,166.2c-.8-.3-.5-1.2-1.3-1.1-.4,0-.8.5-.7.9.4.4.9.7,1.3.7.4,0,.8,0,.8-.5ZM436.8,306.2c-1.2-.3-2.4-.2-3.6.7-1.5.9-2.7,1-4.3.8-1.2-.3-2,.2-2.8.2-.8,0-1.6-.3-2.1-1-1.3-.7-2.6-1.8-2.3-3.8-.5-1.2-.2-2.4-.3-3.6-.7-3.2-.5-6-1.2-8.7,0-.8-.1-1.6.6-2.5-.9-.7-.1-1.6-.6-2.8-.9-1.1-1-2.7-1.5-3.9-.1-1.6-1-2.7-1.1-3.9-.6-2.8-2-5-2.7-7.4-.5-.8-.5-1.2-.9-1.5-1.2-.3-1.3-1.1-1.8-1.9-.5-1.2-1.8-2.3-2.3-3.4-.9-1.1-2.2-1.8-3-2.1l-1.7-1.1c-.4,0-.4-.4-.4-.4,0-.4.4-.4.8-.5.8.3,1.6.3,2.1,1,.8.3,1.6-.1,1.5-.9-.5-.8,0-.8.7-.9.4,0,1.2.3,2,.2s.8.3,1.6-.1c1.2-.5,2,.2,3.3.5.9.7,1.7.7,1.6-.5.3-.8.7-.9,1.5-.9,1.6-.1,3.2-.3,5.1-.9.8,0,.9.7.9,1.1.9.7,1.3.7,2,.2l.4-.4c-.5-1.6,1.1-1.3,1.5-1.3,1.6-.5,3.2-.3,4.4-.4h.8c.5,1.1,1.2.2,1.6.2,1.1-.9,1.9-1.4,3.2-.7h1.2c.7-1,2-.3,3.2-.8h.4c.6,1.9,1.6.2,2,.2,1.2-.5,2-.6,3.2-.7,1.2-.1,2.8.2,4-.3.4-.4.8-.5.8,0,.5.8,1.2.3,1.6-.1,2-.6,4-.7,6-.5.4,0,.8,0,.8.3.1,1.6,1.9,3,2,4.6-.3.8.9,1.5.6,2.8-.3,1.2.2,2,1.1,3.1.4.4.9.7.5,1.6.2,2,1.1,3.5,1.7,5.5.5,1.2.2,2.4.3,3.2.7,3.6,1.4,7.1,1.3,10.3,0,.8.5,1.2.5,1.6.5,1.6.2,2.8.4,4.4.5,1.6.3,3.2.8,4.7.6,2,.3,4,.5,6,.2,2,.3,4,.9,5.9l.3,3.6c.5.8-.3,1.2-1.1.9-3.3-.5-6.8-.2-10.4.5-.4,0-.5-.8-.9-1.1-.8,0-1.6-.3-2.1-1q-.5-1.2.7-1.3h.4s.7-.9.7-.9c0,0-.4-.4-.8-.3-1.2-.3-2.1-1-3.6,0,0,0-.4,0-.8-.3,0-.4.4-.4.8-.5.4-.4,0-.8,0-.8-.9-.7-1.7-.7-2.9-.6-2.4-.2-5.2-.3-8,0-.4,0-.8,0-1.6.5-.4,0-.8,0-1.2.5h-1.6c0-.7.7-.7,1.1-1.2,0-.4,1.2-.5.7-.9-.5-.8-.9-1.1-1.3-.7-.8,0-1.2.1-1.5.9v1.2c.1.4-.2.8-.7.5-.8-.3-2,.2-2.8-.2ZM407.6,160.6q0-.4-.4-.4-.4,0-.8.5c0,.4.4.4.8.3,0,0,.4,0,.4-.4ZM409.9,136.7c0-.4-.1-1.2-.9-1.1-.4,0-.8.5-.7.9,0,.4.1,1.2.9,1.1.4,0,.8,0,.7-.9ZM472.9,187.4c.6,2,.7,4,.5,6,.2,2.8.5,5.6,1.1,8.3,0,.4.5.8.1,1.2-.3.8-.3,1.6-.2,2,.1,1.2.6,2.4,0,3.6-.4.4-.3,1.2-.2,2-.2,2.8-1.1,5.7-.9,8.1,0,.8-.7,1.3-.7,1.7-.7,1.3-.6,2.9-.8,4.1.1,1.2-1,2.5-1.3,3.7-.3.8-.3,1.6-.6,2.5-1,2.5-2.4,4.6-4.3,6.4-.4.4-.8.5-.7.9.2,2-1.8,2.6-2.9,3.5-.4.4-.8.5-1.2.1-.8-.3-1.2-.3-2,.6h-.4q-.4-.3,0-.4c.8-.5-.1-1.2.3-1.2.4-.4.8-.5,1.2-.5h.4s0-.4-.4-.4c-1.6.5-3.6.7-5.5.9h-.8c0-.3.4-.4.8-.4q.4-.4.8-.5l-4.8.4c-.4-.4-1.2.5-1.9,1-.8,0-1.6.5-2.4.6-.4.4-.8.5-.4-.4.4-.4-.4-.4-.4,0-2,.6-4.3.8-6.3,1.4,0,0-.4,0-.4-.4.4-.4.8-.5.3-.8,0,0-.4,0-.4.4-.4,0-.8,0-1.2.5v-.4c.3-1.2-.6-1.6-1.4-1.5-.8-.3-1.2.5-1.1,1.3.4.4-.3.8-.7.9-1.2-.3-1.6.5-2.3,1-.8.5-1.5,1.3-2.8.6-.4-.4-.8,0-1.2.5-.4,0-.8.5-1.2.1-.4-.4,0-.8,0-.8.4-.4.7-.9.3-.8-.4-.4-.8,0-.8,0l-.4.4c-.4.4-.7.9-1.2.5-.4-.4,0-.8.3-1.2.8-.5,1.2-.5,1.5-.9q.4,0,.4-.4h-.4c-1.2.1-2,.6-2.7,1.5-.4.4-.3.8-1.1.9-.4-.4-.5-.8-.5-1.2,0-.8-.5-.8-.9-1.1-1.7-.7-1.7-1.5-.2-2.4l.4-.4c.4,0,.8-.5.3-.8,0-.4-.8-.3-1.2.1-1.1,1.3-2.3,1-3.2-.1-.9-.7-.8.5-1.2.1-.8-.3,0-.8-.1-1.2h-.4c-.4.5-1.2-.3-1.6-.2-.8.5-1.6.1-2-.2-.4-.4-.8-.3-.9-.7s.4-.4.7-.9c1.2-.1,1.9-1,3.6-.7.8.3,2.7-1.8,3-2.7,0-.8.7-1.3,1.1-1.7,1.1-.9,2.3-1.4,2.1-3,1.1-.9.6-2.5,2.1-3.4,0,0,.4,0,.4-.4-.5-1.2.7-1.7.6-2.9,0,0-.4-.4,0-.4,1.1-1.3-.2-2.8,0-4.4.3-1.2.2-2.4,0-4-.3-3.6-.6-7.2-1.7-10.3-.1-1.2.2-2.8-.3-4-.2-2-.7-3.9-.9-5.9.2-2-.7-3.9-1-6.3.2-2-.7-3.9-.6-6.4-.1-1.6-1.1-3.1-.8-4.7,0-.8.3-1.2.7-1.7.8-.5,1.6-.5,1.5-1.7-.4-.4.4-.4.4-.4,2-.2,4-.7,5.5-.9,1.6-.1,3.1-1.1,4.8-.4,0,.4.4,0,.4,0,.8-.5,1.2-.5,2-.6,1.6-.1,3.6-.3,5.1-.9l6-.5c.8,0,1.6-.1,2,.2.9,1.1,1.7,1.1,2,.2.3-1.2,1.1-.9,1.9-1.4,1.6-.1,3.2-.3,4.7-.8.8,0,1.6.3.9,1.5,0,0,0,.4.4.4.4,0,.7-.9,1.1-.9.4-.4.8-.5,0-.8q0-.4.4-.4h1.6c2.8-.4,5.1-1,7.5-1.2.8-.5,1.6.3,1.7,1.1s-.3.8.1,1.2c1.1,3.5,1,7.1,1.7,10.3.7,3.9.7,8,1.4,11.5ZM420.2,135.8c-.4-.4-.9-.7-1.7-.7-.8,0-.3.8-.3,1.2,0,.4,0,.8.4.4.8-.5,1.6-.1,1.5-.9ZM419.4,277.2q0-.4-.4-.4-.4,0-.8.5l.4.4c.4,0,.8-.5.8-.5ZM420.2,278q0-.4-.4-.4c-.4,0-.4.4-.3.8q0,.4.4,0,.4,0,.4-.4ZM423.7,262.4c0-.4-1.3-1.1-1.7-1.1-.8,0-1.1.9-1.1,1.7,0,.8.5.8.9.7.8,0,1.9-1,1.9-1.4ZM423.8,272.4c0-.8-.5-.8-1.3-.7-.4,0-.4.4-.3.8,0,.4,0,.8.9.7.4-.4,1.2-.5.7-.9ZM425,139.4h-.4c-.4,0-.8.1-.7.9h.4c.4,0,.8-.1.7-.9ZM425.8,149.4c0-.4-.4-.4-.4-.4-.8,0-.8.5-.7.9-.4.4,0,.4.4.4.4-.4.8-.5.7-.9ZM426.5,267c.4.4.9.7,1.7,1.1,0,0,.4,0,.4-.4,0-.8-.9-1.1-1.3-1.1-.4,0-.8.5-.8.5ZM427.4,300.6l-.4-.4q-.4.4-.3.8,0,.4.4.4c.4,0,.4-.4.3-.8ZM428.2,217.8s-.4-.4-.4,0c-.4,0-.8,0-.8.5,0,.4.4.4.4.4.4,0,.8-.5.7-.9ZM430.2,276.7c-.4-.4-.5-1.2-1.7-1.1-.4.4-1.2.5-.7,1.3,0,.4.1,1.2.9,1.1.8,0,1.2-.5,1.5-1.3ZM431,144.5c0-.8-1.4-1.9-2.6-1.8-.4,0-.7.9-.7,1.3,0,.8,1,1.9,1.4,1.9.4,0,1.9-1,1.9-1.4ZM427.8,227.1c.4.4.1,1.2.9,1.1.4,0,.8-.5.7-.9,0-.4-.5-.8-.9-.7-.4,0-.8,0-.8.5ZM430.7,237.3c0-.4-.5-.8-.9-1.1-.4,0-.8.5-.3.8.4,0-.3,1.2.9.7.4,0,.8,0,.4-.4ZM431.1,154.1c-.4,0-.1-1.2-.9-1.1q-.4.4-.3.8c.4.4.1,1.2.9,1.1.4,0,.8-.5.3-.8ZM431.8,212.3c0-.4-.4-.4-.4,0-.4,0-.8,0-.8.5s0,.4.4.4c0-.4.8-.5.7-.9ZM431.8,272.5c.8,0,1.2.3,2,.2q.4,0,.4-.4c0-.4.3-1.2.7-1.7v-.4c-.9-.7-3.3-.5-3.6.7-.4.4.1,1.2.5,1.6ZM431.3,262.1q0,.4.4.4c.4,0,.8-.5,1.1-.9l-.4-.4c-.8.5-1.2.5-1.1.9ZM434.2,231.4s0-.4-.4,0q-.4,0-.8.5l.4.4c.4,0,.4-.4.7-.9ZM435.4,148.5c.4-.4-.4-.4-.4-.4-.8,0-1.2.5-1.1.9s0,.4.4.4c.4,0,1.2-.5,1.1-.9ZM435.8,300.3q0,.4.4.4c.4,0,.8,0,.7-.9h-.8c-.4.1-.8.1-.4.5ZM437.6,183.3c-.4-.4,0-.8,0-.8.3-.8,0-.8-.5-1.2,0,0-.4-.4-.8,0-.4,0-.6,2.1-.6,2.5.4.4.5,1.2,1.7.7,0,0,.8-.5.7-.9.4-.4-.4-.4-.4-.4ZM437,267.7c.8-.5,1.5-.9,1.5-1.3-.4-.4-.5-1.2-1.3-.7-.8,0-.3.8-.7,1.7,0,.4.4.4.4.4ZM436.9,275.7l.4.4c.8-.5,1.1-.9,1.5-1.3,0,0,.4,0,0-.4-.4-.4-.8,0-1.2.1-.4.4-.8.5-.7,1.3ZM492.2,338.7c.5,1.6.3,3.2.5,5.2.5,1.2.2,2.4.3,3.6.2,2-.9,3.3-2.5,3.4l-1.9,1c-1.1.9-2.7,1-4.3,1.2-2.8-.2-5.2-.3-8,0-.4,0-1.2.1-1.6.5-2,.6-4.3.8-6.4.6h-1.2c-.8.6-1.2.6-2,.3-.8-.3-1.6-.3-2.4-.2-.4.4-.8,0-1.2.1-1.2.1-2.4-.2-3.6.7-1.2.5-2-.2-3.2-.1-2,.2-4,.3-6-.3-2.5-1-4.2-2.4-5.6-4.7,0-.4-.5-.8-.9-1.5-.5-.8-1-1.9-.7-3.6-.2-2-.7-4-1.7-5.9v-1.2c-.2-1.2,0-2.4-.5-4-.5-1.2-.6-2.4-.7-3.2,0-4-.3-8-1-12-.1-1.2.2-2.4-.3-3.6-.4-.4,0-.4.3-.8.4-.4.8-.5.3-1.2,0-.4.4,0,.4,0,.4,0,.8.3.8.3.5,1.2,2.1.6,2.6,1.8,0,0,.4,0,.4-.4.8-.5,2-.2,2.8.2,1.2-.1,2.5.6,3.6,0,.8,0,2,.2,1.8,1.9v.4s.5.4.5.4q.4,0,.4-.4c.4-.4.7-1.3,1.1-1.3,1.2.3,2.4-.2,3.3.9.5,1.2.9,1.1,1.7.7,1.1-.9,2.3-1,3.1-1.5,1.9-1,3.6-.3,5.6.3.8.3,2,.2,3.2.1,1.6-.1,1.6.3,2.1,1.4.1,1.2.5,1.2,1.3.7.4-.4.8-.5.7-.9.4,0,.8,0,.8.3.1,1.2.9,1.5,1.8,1.9.9.7.9,1.1.6,2v.8c0,0,.9,0,.9,0,.7-.9,1.2-.5,1.6.3.5,1.2,1.7,1.5,2.6,2.2h.8c1.9-1,4.3-.9,6.3-1q.4,0,.4.4l.5,1.6c-.3.8.2,2,.6,2.8.6,2.4.4,4.4,1,6.3.5,1.2.6,2.8,1.1,3.9ZM440.2,285.8c-.5-.8-.1-1.2-1.3-1.1,0,0-.8,0-.4.4,0,.4.9.7,1.3,1.1l.4-.4ZM438.6,143.4c0,.4.1,1.2.9,1.1.4,0,1.2-.5,1.1-.9l-1.3-.7q-.8,0-.8.5ZM439.8,134.1c0-.4-.4-.4-.4-.4-.4,0-.8,0-.8.5q0,.4.4.4.4,0,.8-.5ZM441.5,177.3c0-.4-.5-.8-.9-.7-.8,0-1.2.5-1.6.5-.4.4,0,.8.1,1.2,0,.4,0,.8.9.7.4-.4.7-.9,1.1-.9.4-.4.8-.5.3-.8ZM441.8,152.8c0-.8-1.3-1.5-1.7-1.1-.8,0-1.1.9-.7,1.3,0,.4-.3,1.2.5,1.2.8,0,1.9-1,1.9-1.4ZM441.6,260.8q0,.4.4,0s.4,0,.4-.4h-.8c0,0-.4.1,0,.5ZM442.5,280.4q0,.4.4.4c.4,0,1.2-.5,1.1-.9,0-.4-.5-.8-.9-.7-.4.4-.7.9-.7,1.3ZM444.9,137.7h-.8c-.4.1-1.2.2-1.1,1h.4c.4,0,1.2-.1,1.5-1ZM444.4,329.6h-.4c-.4,0-.8.1-.8.5s.4.4.4.4c.4-.4.8-.5.7-.9ZM443.9,172.3c.4.4.5,1.2.9,1.1.4,0,.8,0,.8-.5,0-.8-.5-1.2-.9-1.1-.4,0-.8,0-.8.5ZM446.6,156.8c-.4-.4-1.3-.7-1.7-.7-.8,0-1.2.5-.7,1.3,0,0-.3.8.5.8.8,0,1.9-1,1.9-1.4ZM445.7,289c-.8,0-1.6.1-1.5.9,0,0,0,.4.4.4.4-.4,1.2-.5,1.5-1.3h-.4ZM445.6,205.9c-.4,0-.5-.8-.9-.7-.8,0-.3.8-.3,1.2q0,.4.4.4c.4,0,.8-.5.7-.9ZM445.2,182.2c.4,0,1.5-.9,1.5-1.3h-.4c-.8-.3-.7.9-1.1.9-.4,0-.4.4,0,.4ZM445.5,263.7c.5.8.1,1.6,1.3,1.5.8.3,1.2.3.8-.5.3-1.2-.9-1.1-1.3-1.5-.4,0-.8,0-.8.5ZM446.5,275.3c.8,0,.8.3,1.6.3.4,0,1.2-.1,1.1-.9-.4-.4-.9-.7-1.7-.7l-1.1.9s-.4.4,0,.4ZM446.9,224.2c.4,0,.8,0,.8-.5h-.4c-.4,0-.8.1-.8.5,0,0,.4.4.4,0ZM447.3,284.8c.4.4.1,1.2.9,1.1.8,0,1.2-.5,1.5-.9.8-.5-.5-.8-.1-1.6.4-.4,0-.4-.4-.4-.8,0-1.9,1-1.9,1.8ZM448.7,200c-.4,0-.8.5-.7.9,0,.4.4.4.8.3q.4-.4.3-.8c0-.4-.4-.4-.4-.4ZM449.4,152.1c0,.4.1,1.2.5,1.2.4,0,.8-.5.3-.8,0-.4,0-.8-.9-.7v.4ZM451.6,210.2c0-.4-.5-1.6-1.7-1.1-.4,0-.4.4-.3,1.2,0,.4.1,1.2.9,1.1.4,0,1.2-.5,1.1-1.3ZM452.5,219.7c-.4-.4-.1-1.6-1.3-1.5-.8,0-.7.9-.7,1.3.1,1.2,1.2.3,1.7.7q.4,0,.4-.4ZM451.8,162c0-.4-.4-.4-.4-.4-.8-.3-.8.5-.8.5v.8c.8-.5,1.2-.5,1.2-.9ZM451.6,269.6q0,.4.4.4c.4,0,.8-.5.7-.9,0-.4-.4-.4-.4-.4-.4,0-.8.5-.7.9ZM454.4,328.4c0-.4-.5-1.2-1.3-1.1-.8.5-.7.9-.3,1.2,0,.4-.3,1.2.5,1.2.4,0,1.2-.5,1.1-1.3ZM452.8,195.6c-.4,0,0,.4.4.4,0-.4.4-.4.3-.8,0-.4-.4-.4-.5-.8-.4,0-.3.8-.3,1.2ZM453.5,204.4c0,.4.5.8.9,1.1.4-.4,1.2-.5,1.1-1.3,0-.4-.5-.8-1.3-.7-.4,0-.8,0-.7.9ZM453.7,288.7s0,.4.4.4.8-.5,1.1-.9q0-.4-.4-.4c-.4,0-.8,0-1.1.9ZM455.5,180.5c.4-.4.8-.5.7-.9.4-.4,0-.4,0-.4-.4,0-.8.5-1.1.9,0,0,0,.4.4.4ZM458.8,222.8s-1.7-1.1-2.1-1c-.4.4-.7.9-1.1.9-.7.9-.3,1.2.2,2,0,.4.4.4.8,0,.8-.5,2-.6,2.3-1.8ZM457.1,190c.4,0,0,.4.5.8.4.4.4,0,.8,0,0-.4-.9-1.5-1.3-1.5-.4.4-1.2.5-.7.9,0,.4.4,0,.8,0ZM458.8,324.4c.3-.8-.6-2.4-1.8-2.3-.4.4-.3.8-.3,1.2-.3,1.2,1.2.3,1.7,1.1,0,.4.4.4.4,0ZM457.2,283.1s.4.4.4,0c.4,0,.8,0,.8-.5-.4-.4-.8,0-1.2.5ZM458.7,332.4h-.4c-.4,0-.8.1-.8.5,0,.4.4.4.8.3,0,0,.4-.4.3-.8ZM460,342.3q-.4-.4-.8-.3c-.4,0-.8.5-.7.9-.4.4,0,.4.4.4s.8-.5,1.1-.9ZM460.1,160.4h.4c-.4-.4-.8-.4-1.2-.3l-.4.4c.4.4.8,0,1.2-.1ZM459,152.1l.4.4c.4,0,.8-.5.7-.9,0,0-.4,0-.4-.4-.4,0-.8.5-.7.9ZM460,259.2q0,.4.4.4c0-.4.8-.5.7-.9,0-.4-.4-.4-.4-.4-.4,0-.8.5-.7.9ZM460.2,184.1c0,.4.5.8.9.7.4,0,.8,0,.8-.5-.4-.4-.9-.7-1.3-.7q-.4,0-.4.4ZM462.3,217.7v-.4c0-.4-.5-.8-.9-1.1,0-.4-.8,0-.4,0,.5.8-.3,1.2-.7,1.7q0,.4.5.8l1.6.3c.8-.5-.5-.8-.1-1.2ZM461.4,161.1c0-.8-.4-.4-.9-.7,0,.4,0,.8.9.7,0,0,.4,0,0,0ZM463.1,318.4l-1.3-1.1c-.8,0-1.1.9-1.1,1.3.4.4.1,1.2.9,1.1.4,0,1.2-.5,1.5-1.3ZM462.7,336.1c-.4,0-.4-.4-.8-.3-.8,0-1.2.5-1.1,1.3,0,.8.5.8,1.3.7.4,0,.3-.8.7-1.7ZM462.4,227.7l1.1-.9-.4-.4c-.8.5-.7.9-1.1,1.3h.4ZM464,328.3q-.4-.4-.8-.3s-.8,0-.7.9h.8c0,0,.4-.1.8-.5ZM465.1,203c-.4-.4-.9-1.1-1.7-1.1-.4,0-.8.5-.7.9,0,.4.5,1.2,1.3,1.1.4,0,.8-.5,1.1-.9ZM465.2,236.3c0-.4-.4-.4-.4-.4-.8,0-1.2.5-1.1.9,0,0,0,.4.4.4l1.1-.9ZM464.9,155.2h-.4c-.4,0-.8.5-.7.9,0,0,0,.4.4,0,.4,0,.8,0,.7-.9ZM466.3,212.5c-.4-.4-.5-1.2-1.3-1.1-.4,0-.8.5-.8.5,0,.4.9,1.5,1.3,1.5.4-.4.8-.5.7-.9ZM465.6,347.1c0-.4-.4-.4-.4,0-.8,0-1.2.1-.8.5q0,.4.4.4c.4,0,.8-.5.7-.9ZM466.3,322.9c-.4.4,0,.4.4.4.4,0,.8-.5.7-.9,0-.4-.5-.8-.9-.7-.4.4-.3.8-.3,1.2ZM467.5,222c0-.4-.4-.4-.4-.4-.4,0-.8,0-.8.5q0,.4.5.8c.4,0,.8-.5.7-.9ZM469.1,331.9c0-.8-.5-.8-.9-.7-.8.5-1.5.9-1.1,1.7,0,.4.4,0,.8,0,.8,0,1.2-.1,1.1-.9ZM468.9,292.6c0,.4.4.4.4.4.8,0,1.2-.1,1.1-.9h-.4c-.4,0-1.2.1-1.2.5ZM473.9,327.1c0-.4-.5-.8-.9-.7-.4,0-.4.4-.7,1.3l.4.4c.8-.5,1.2-.5,1.1-.9ZM478.3,331.1s0-.4-.4-.4c-.4,0-.8.5-.7.9-.4.4,0,.4,0,.4.8,0,1.2-.5,1.1-.9ZM488.7,340.2c0-.4-.4-.4-.4-.4-.4,0-.8,0-.4.4v.4c.4,0,.8,0,.8-.5Z"/>
          <path class="st0" d="M500.2,150.1c0-.8-.5-1.6.6-2.5v-.4c-.9-.7-.6-1.6-.6-2.4-.5-1.6-.7-3.2-1.2-5.1,0-.4.3-.8.7-1.3q1.1-.9-.2-2c-.8-.3-.9-1.5-1-1.9.7-1.3.2-2.4,0-3.6-.5-1.6-.2-2.8-.4-4.4.3-1.2-.6-2.8-.4-4.4.3-1.2.2-2.4.9-3.3.4,0,.8-.5.8-.5-.5-1.6.6-2.1,1.4-2.5,1.5-.9,2.7-1.4,3.8-2.3.4,0,.8-.5,1.2.3h.4c1.5-1.4,2.8.1,4.4-.4,1.2-.5,2.8.2,4-.7.9,1.1,1.6.3,2.4.2,1.2-.1,2.4.2,3.5-.7h.4c.9.7,1.6.2,2-.2.8,0,1.2-.5,1.6.3.8.3,1.2-.1,1.6-.1.8-.5,1.5-1.3,2.8-.6.4.4.4,0,.8,0,.4,0,.8-.5.8-.5.9,1.1,2.1.6,2.8.2.4-.4.8-.5.8,0,.4.4.8.3,1.6-.1.8,0,1.5-.9,2.4-.2,0,.4.4.4.4.4,1.1-1.3,2.4-.6,3.6-.3,1.2-.1,2.5.6,3.7,1.3.9.7,1.7,1.5,1.9,3,.1,1.2.6,2.4.7,3.6.1,1.2.6,2.4,1.1,3.5.5.8.5,1.6-.6,2.5l-.7.9c-.4.4-.8.5-1.2.1-1.3-.7-1.2-.3-2,.6-1.4,2.1-1.6,4.2-2.2,6.6-.3,1.6-1,2.9-2.9,3.5-.4,0-.8.5-.9-.7,0,0,0-.8-.5-.8-.4,0-.4.4-.7.9-.3.8-.7,1.7-1.9,1.8l-2.7,1.4q-1.5,1.7-3,1.9t-.8.5c-1.1,1.3-2.3,1.8-3.3,3.1-1.1,1.3-2.7,1.8-3.7,3.1-.8.5-1.5,1.3-1.8,2.2-.3.8-1.1,1.7-1.9,1.8-.8,0-1.2.5-1.5.9-1.1,1.3-2.2,2.2-2.9,3.9-.3.8-1.5.9-2.4.2,0-.8-.5-.8-1.2-.3-.4,0-1.2.5-1.5.9-.7,1.7-2.2,2.2-3.8,2.3-1.2.1-2.8-.2-3.7-1.3.3-1.2-1-1.9-1.1-3.1.3-.8-.1-1.6-.2-2.4-.5-.8.3-1.6-.2-2.4ZM504.4,151.7c0,.4.4.4.4.4l1.1-.9c-.4-.4-.8-.3-1.2.1-.4,0-.8,0-.4.4ZM516.1,235.4c-.8,0-1.2-.3-1.3-.7,0-.4-.5-.8-.5-.8-1.6-.3-2.2-1.8-3-2.5-.8,0-.9-.7-.9-1.5.3-1.2-.2-2.8-.3-4-.5-.8-.1-1.6-.2-2-.1-1.6-1.1-3.1-.8-4.3.3-1.6-.7-3.6.4-4.9q.4-.4,0-.4c0-.4-.4-.4-.4-.4,1.1-1.3-.6-2.4-.3-3.6-.1-1.2-.6-2.4-.3-4-.1-1.6-1.1-3.1-.8-4.7.3-1.2.2-2.4-.3-3.6-.1-1.2-.6-2.8.4-4.1q0-.4-.5-.8c-.5-1.2-1-2.3-.3-4,0-.8-.5-1.6-.2-2.4,0-.8-.1-1.6.2-2.4.4-.4-.5-1.2-.5-1.6q.2-2,1.8-2.2c3.6-.7,7.5-1.5,11.1-1.4,1.6-.1,2.8-.6,4.4-.4,1.2-.1,2.8-.6,4.3-.8.4,0,.8-.5.8,0,.5,1.6,1.2.3,2,.2,1.2-.5,2.3-1.4,3.5-1.1h.8c0-.5.8-.1.7-.9l-4,.3q-.4,0-.8-.3c-1.3-.7-1.7-.7-2.8.6-.4.4-.8.5-1.2.5-3.2-.1-6.3,1-9.9,1.3q-1.6.1-1.7-1.5c-.2-2.4-.9-5.1-1.1-7.5.3-.8-.1-1.6-.2-2-.6-2-.7-4-.5-6q.3-1.2,1.5-1.7l.7-.9c-.1-1.6,1.5-1.7,2.2-2.2,1.2-.5,1.9-1,2.6-2.2,0,0,0-.4.4-.4,1.2-.5,2.3-1,3.9-1.1.4-.4.9.7,1.3,1.1q.5,1.2,1.2.3c1.1-.9,2.2-2.2,3.9-1.1h.8c0,0,.4.3.4-.5q0-.4-.4-.4c-.4-.4-.8,0-.8-.3,0-.4.3-.8.7-1.3.4,0,.8-.5,1.2-.1.5.8.8,0,1.6-.1,0,0,.4,0,.4-.4,0-.4-.4-.4-.4-.4-1.3-.7-1.7-1.5-1.4-2.3.3-.8,2.3-1.8,3.1-1.1.9.7.8.3,1.6-.5,1.1-1.3,2.6-2.6,4.6-2,.8,0,2-.6,2.4.2,0,.4.4.4.8,0,.7-1.3,1.5-1.3,2.7-1,.4,0,1.2-.1,1.5-.9.3-.8,1.2-.5,1.6-.1,1.3.7,2.1.6,2.4-.2.7-.9,1.1-.9,1.9-1,1.6.3,2.3-1,3.4-1.9l.4-.4c.3-.8,1.1-1.3,1.9-1.4.8.3.5,1.2.6,2,.1,1.2-.2,2.8,1.1,3.9v.4c-.1,2.8.9,5.1.7,7.6l.3,3.6c.5,1.6-.1,3.2.5,5.2.5,1.6.3,3.2.5,5.2.1,1.6.7,3.2.9,5.1.1,1.6-.3,1.6-1.8,2.2-2,.2-4,.3-6.3,1l-6,.5c-.8.5-1.6.5-2.4-.2-.4-.4-1.2-.3-2,.6-.4.4-1.2.5-2,.6-2,.2-3.5,1.1-5.6,0-.8-.3-1.9,1-2.7,1.4-.4,0,0,0,0,0,.4.4.8.3.9.7.6,2,1.3.7,2,.2,1.5-.9,3.5-1.5,5.5-1.7,1.6-.1,3.6-.3,5.1-.9,1.2-.5,2.7-1,4.4-.4.4.4,1.2-.5,1.6.3.4.4.1,1.2.5,1.6,1,1.9.3,4,.5,5.6-.2,2.8.5,5.2.3,7.6.2,2.4.8,4.7,1.4,7.1.5.8-.3,1.6-.2,2.8l1,11.6c.2,2.8.5,5.6.3,8.4.1,1.2,1.4,2.3,1.1,3.5-1,2.1,0,3.6.5,5.6.2,2.4-.4,4.5-.2,6.8.5,1.6.7,3.6.9,5.1.5,1.2.6,2.4.3,4l.3,3.2c0,.8.1,1.2-1.1,1.7h-.4c-.4.5-.3,1.3-1.1,1.3-.8-.3-1.7-.7-1.7-1.5s0-.8-.8-.3c-.4.4-.8-.3-.9-.7-.9-1.5-2.6-2.6-4.2-2-1.2.5-1.6.1-1.3-.7,0-.4.3-.8-.1-1.2-.4,0-.8.5-.8.5-.4.4-.8.5-.8,0-1.6-.3-3.3-.5-4.2-2q-.4-.4-.8-.3c-.8,0-.8.5-.7.9.1,1.2-.7,1.3-1.5.9-.4,0-.8-.3-1.7-.7-.4-.4-.5-.8-1.3-.7-.4.4-.4-.4-.5-.8l-.2-2c-.4-.4.4-.4.7-.9.4,0,.8,0,.8-.5,0-.4-.4-.4-.8-.3h-1.2c-.4.1-.8.2-1.6-.2h-.8c-1.6.2-2.8,0-4.1-1.2h-.8c-.3,1.3-.7,1.3-1.2.2-.4,0-.4-.4-.8-.3-1.2.1-2.4.2-3.3-.5-.9-.7-1.6-.3-2.4.2l-1.1.9c-.9-.7-2.4.2-3.3-.9-1.3-.7-2.5-1-3.7-.9ZM514.2,218.3c.4,0,.8,0,.7-.9-.8,0-.1-1.2-1.3-1.1-.4,0-1.2.5-.7.9,0,.4.5,1.2,1.3,1.1ZM516.6,227c0-.4-.9-.7-1.3-.7-.8,0,0,.8-.3,1.2-.4.4,0,.4.4.4.4,0,1.2-.5,1.1-.9ZM516.4,193.3h.4c.4-.5,1.2-.1,1.1-.9,0,0-.4-.4-.4,0-.4,0-.8.5-1.1.9ZM520,169.6c-.4-.4-.9-1.1-1.3-1.1-.4-.4-.8.5-.7.9,0,.4.1,1.2.9,1.1l1.1-.9ZM518.1,212.4c0,.4.1,1.6.9,1.1.4,0,.8,0,1.1-.9-.8,0-.5-.8-1.3-.7-.4,0-1.2.1-.8.5ZM667.2,292.5c.5,1.2.6,2.4.7,3.5.4.4.5,1.2.2,2l-.4.4c.5,1.6.3,3.2.9,5.1.5,1.6.7,3.2.4,4.8-.2,2.4.5,5.2.7,7.6.1,1.6.7,3.6.5,5.2-.6,2.5-1.6,4.2-3.9,5.6-2,.6-4,.7-5.9.9-1.2.1-2,.2-2.8.6-1.5.9-3.1,1.1-4.3.8l-11.2,1c-2,.6-4.3.8-6.3,1l-11.2,1c-1.6.5-3.2.7-4.7.8l-7.6.7c-.8,0-2.9-1.4-3-2.1,0-.8-.5-.8-.9-1.1-1.6-.3-2.8-.2-4.4,0,.7-1.3.7-.9-.5-1.2-2.4-.2-4.9-.4-7.3-1-.4,0-.8,0-.9-.7.4-.4-.4-.4-.9-.7-2.4.2-3.3-1.3-5.1-2.8v-.8c.6-1.7-1-1.1-1.4-1.5-.4-.4-1.2.1-1.3-.7,0-.8-.4-.4-.8-.3-.4.4-.8.5-1.2.1v-.4c.3-.4.7-.9,1.1-.5.4.4.8,0,1.2-.5q.4-.4.3-.8h-.8c-.4.5-1.2.6-1.5,1-.8,0-1.5.9-1.5.9-.5-1.6-2.5-1.4-3.1-3.3,0-.4-.1-1.2.3-1.2.8-.5.3-.8.3-1.6-.4-.4-.4,0-.8,0-1.1.9-.6,2.1-.5,3.3,0,.4.5.8,0,.8,0,.4-.4,0-.8-.3l-.4-.4c-.8-.3-1.7-.7-.1-1.2l-1.1-3.1c-1.2.1-2.1-1.4-3.7-.5-.4,0,0-.4,0-.4q.4-.4.3-.8h-.8c-.7.9-.8.1-1.2-.2-.5-.8-.9-1.5-2.1-1-.8,0-.9-.7-.9-1.5-.4-.4-.5-.8,0-.8.4,0,.8-.5.3-.8,0-.4-.4-.4-.8-.3-.3.8-1.2.5-1.6.1-.4,0-.8-.3-1.2-.3-.8-.3-.9-.7-.1-1.2-.8-.3-.9-.7-.9-1.5-.8,0-1.3-1.1-2.1-.6-.8.5-1.2.5-.7,1.7,0,0,0,.4-.4.4l-.4-.4c0-.4,0-.8-.5-1.2-.5-.8-.9-1.5-2.5-1.4-.8,0-.5-1.2-.9-1.1-.8-.3-.3.8-1.1.9-.4,0-.8-.3-1.2-.3-.4-.4-1.3-.7-2.1-.6-1.2.1-2-.2-2.9-1-.5-.8-.8-.3-1.2.1-.3.8-.7,1.3-1.1,1.3-.8.5-1.2.1-2.1-.6-.4-.4-2,.6-1.9,1.8.1,1.2-.6,2.1-1.4,2.1h-.4c-.5-.7-.9-1.5-1.8-1.8.7-.9-.9-.7-.9-1.5.3-.8-.1-1.6-.2-2.4,0-.8-.2-2-.6-2.8-.4-.4,0-.4.3-.8.4-.4.8-.5.7-.9.8,0,1.2-.5.3-.8-.8-.3-.9-.7-1.3-1.1-.4-.4-1.3-1.1-.6-2,.4-.4-.1-1.2-.1-1.6-.1-1.6,0-3.6-.9-5.5v-.4c.3-.4,1.2-.1,1.5-.9.4-.4.7-.9,1.2-.1.4.4.8.3.8,0,.3-.8.7-1.3,1.1-.9.4,0,1.2-.1,1.2-.5,0-.4-.4-.4-.8-.3-1.6.1-2.8.6-4.3,1.2-3.2.7-6.3,1.4-9.4,2.4-1.2.1-2.4.2-3.2.7-1.2.5-1.6.1-1.7-1.1-.6-2-.4-4.4-.6-6.4,0-.8.3-.8.7-1.3.4,0,.8-.5,0-.8-.8-.3-1.3-.7-1-1.9l-.5-5.6c-.1-1.2-.6-2.4-.7-3.6.3-1.2.2-2.8,0-4.4.3-.8-.2-2,.6-2.9-.4-.4-.9-.7-.5-1.2l-.5-6c.2-2,0-3.6-.5-5.6,0-.4-.4-.4,0-.8l1.1-1.3c.8,0,1.6-.1,2.1.6.6,2,2.6,2.6,3.6,4.1,0,.4.4.4.8.3l3.8,2.1c.4.4,1.7.7,1,2.3,0,.4.9.7,1.7.7.8,0,1.2.3,1.3,1.1.6,2,2.2,2.2,4.2,2,.8,0,2,.2,2.9.6,1.2.3,2.1.6,3.2.1.5.8.9.7,1.3.7,1.6.3,2.5.6,3,2.1,0,.4,0,.8.5,1.2,0,.8.5,1.2,1.3,1.1.8,0,2-.2,2.1,1,.5.8.8.3,1.2.3.8.3,2,.2,2.9,1,.5.8,1.7,1.5,2.5,1.4,1.6-.1,2.5,1,4.1.8.4,0,.5.8,0,.8,0,.4-.3.8-.3,1.6v.4c1.6-.5,1.7,1.1,2.2,1.4.5.8.9,1.5,1.8,1.9.4.4.9.7.9,1.5,0,.4-.8.5-1.2.5q-.4.4-.8.5l-.4.4q.4.4.8.3c1.5-1.3,3.5-1.1,5.5-1.7l4-.7c1.9-1,3.9-1.1,5.9-1.7.8,0,1.6.3,2.8-.2,1.1-.9,1.6-.5,1.7,1.1,0,.8.5,1.6.6,2.4.3,3.2,1.4,6.3,1.7,9.9-.2,2.4,1.6,4.3,4.4,4.4.8.3,1.7.7,2.4.2q.4-.4.8,0c.1,1.2.8.3,1.6.3,0-.4.4-.4.8-.5,1.3.7,2,.2,2.8-.2,1.1-.9,2.4-.2,3.6-.3.8.3,1.6.3,2.4-.2.8-.5,1.1-.9,2-.2,0,.4.4,0,.8,0,.8-.5,1.6-.5,2-.2.8.3,1.2-.1,1.6-.1.8-.5,1.5-1.7,2.8-.6,0,.4.4,0,.8,0,0,0,.4-.4.8,0,1.3.7,2-.2,2.8-.6.8,0,1.2-.5,1.6.3,1.1-.9,2.9.6,4-.3.8-.5,1.5-1.3,2.4-.2.4,0,.8,0,1.2-.5.8,0,1.1-.9,2,.2h.4c1.1-1.3,3.2,0,4.3-.8.4-.4.8,0,.8,0,.4,0,.4.4.8.3,1.5-1.3,3.2-.3,5.1-1.3.4-.4,1.2-.5,2-.2.4,0,.8,0,1.2-.5h.8c.9.7,2,.2,3.3.4.4,0,1.2-.1,1.6-.5.8,0,1.2-.5,2-.2,0,.4.4.4.8.3.8-.5,1.5-.9,2.4-.2h.4c1.5-1,2.4-.2,3.3.5.4.4.9.7,1.7.7,2.1.6,2.6,2.2,3.2,4.1.9,1.5.3,3.2.4,4.8ZM520.8,188.1q.1,1.2.5,1.2c.4-.4,1.6-.5,1.5-1.3,0-.4-.5-1.2-1.3-1.1-1.2.1-1.1.9-.7,1.3ZM521.3,198.8c.8,0,1.9-1,1.9-1.4,0-.8-.8-.3-1.6-.3-.8-.3-.8.5-.7,1.3,0,0,0,.4.4.4ZM522.8,216c.8.3.9,1.1,1.7,1.1,0,0,.4,0,.4-.4-.5-.8-.5-1.2-1.3-1.1-.4,0-.8,0-.8.5ZM526.7,173.5c-.5-.8-.9-1.5-2.1-1.4-.4,0-.8-.3-.8,0-.4.4-.3,1.2-.3,1.6l1.3,1.1c.4.4.8,0,1.2-.5.4-.4.8-.5.7-.9ZM525.5,182.8l.9,1.1c.4,0,.4-.4.4-.4,0-.8-.5-1.2-.9-1.1s-.4.4-.4.4ZM526.8,270.2c-.4,0-.8,0-1.2.5,0,.4.4.4.4.4.4,0,.8-.5.7-.9ZM526.8,261.8v-.4c-.8,0-.8.5-.8.9,0,0,0,.4.4.4,0-.4.4-.4.3-.8ZM526.4,192.4c0,.4.5,1.2.9,1.1.4,0,.4-.4.3-.8,0-.4,0-.8-.9-1.1q-.4.4-.3.8ZM526.8,202c.4.4.5,1.2.9,1.1,1.2-.1.7-.9.7-1.7q0-.4-.4-.4c-.4,0-1.2.5-1.1.9ZM528.5,280.9c-.4-.4-.5-.8-.9-.7-.4,0-.4.4,0,.4,0,.4-.3.8.5.8l.4-.4ZM527.6,211.1l.4.4c.4,0,.8-.5.7-.9h-.4q-.4,0-.8.5ZM529.5,168.4c0-.8-.5-.8-.9-.7-.4,0-.8,0-.7.9,0,0,0,.8.5.8.4,0,.8-.5,1.1-.9ZM529.3,143.1c-.4.4-.7.9-1.1.9,0,0-.4,0,0,0,0-.8.3-1.2,1.1-1.3v.4ZM528.5,221.1c0,.4.8.3,1.3.7.8,0,.4-.4.3-.8,0-.4-.1-1.2-.5-.8-.8,0-1.6.1-1.1.9ZM530.4,151.1c0,.8-.8.5-1.1.9-.4,0-.8-.3-.9-.7,0-.4.4-.4.8-.5.4.4,1.2-.5,1.2.3ZM529.9,187.2c0,.4.5.8,1.3.7.8-.5,1.2-.5,1.5-1.3-.8-.3-.9-1.1-1.7-.7-.4,0-1.6.5-1.1,1.3ZM531.1,255.8h-.4c-.4,0-.8.1-.8.5q0,.4.4.4c.4,0,.8-.5.7-.9ZM532.4,275.4c0-.8-.5-.8-1.3-.7-.4,0-.4.4-.3.8s0,.8.5.8c.8,0,1.2-.5,1.1-.9ZM532.1,206.7q0,.4.4.4c.4,0,1.2-.5,1.1-1.3,0-.4-.4-.4-.5-.8-.4,0-1.5,1.7-1.1,1.7ZM535.9,172.7c-.1-1.2-1.4-1.9-2.2-1.8-.4,0-1.1.9-.7,1.7,0,.4.5,1.2.9,1.5.8-.5,2-.6,1.9-1.4ZM533.6,224.7c0,.8.1,1.2.9,1.5.4-.4.8-.5.7-.9l-1.3-1.1c-.4,0-.8.5-.4.4ZM534.2,181.3c.4.4-.3,1.2.9,1.1.4-.4,1.2-.5,1.1-1.3-.4-.4-.5-1.2-1.3-1.1-.4.4-1.2.5-.7,1.3ZM534.5,234.6c0,.8.5,1.2,1.3,1.1q1.2-.5,1.1-.9c0-.4-1.3-1.1-1.7-1.1-.4,0-1.2.1-.7.9ZM534.7,260.3c0,.4.4.4.8,0q.4,0,.8-.5c-.4-.4-.8-.3-1.2-.3,0,.4-.4.4-.3.8ZM537.6,270.1v-.4c-.1-1.2-1-1.5-1.7-1.1-.4,0-.7.9-.7,1.7-.3.8.4,0,.8,0q.4.4.5.8.4.4.8,0c.4,0,.8-.5.3-.8ZM538.1,280.1c0-.4-.9-1.5-1.3-1.5-.8,0-1.1.9-1.1,1.3,0,0,1.3,1.1,1.7,1.1s.8-.5.7-.9ZM536.1,124.5c0,.8.4.4.9.7q.4,0,.4-.4c0-.4-.4-.4-.8-.3h-.4ZM537.4,167.3s-.3.8.5.8c.4-.4,1.6-.5,1.5-1.3,0-.8-.5-1.2-.9-1.1-.8,0-1.5.9-1.1,1.7ZM538.1,220.3c0,.4,0,0,.4,0,.4,0,.8,0,.4-.4h-.4c-.4,0-.8.1-.4.5ZM542.4,274.5h-.4c-.4-.3-.8.1-1.2.5,0,.4.4.4.4.4.4,0,.8-.5,1.1-.9ZM582.8,337.2c.2,2,0,4,.5,6,0,.4-.3.8-.8.5-.8-.3-1.6.1-2.4.6-1.2.5-2.4-.2-3.6,0l-4.4.4c-.4,0-1.2.5-2,.2-2-.2-4,0-6,.1-1.6-.3-2.8-.2-4.4,0h-.8c-1.2.6-1.6.2-1.7-.6,0-.4,0-.8-.5-.8-.4-.4,0,.4-.4.4,0,.4-.4.4-.4.4-1.2.1-2.4.6-3.6.3-.8-.3-1.6-.3-2.4-.2-2.3,1-4.1-.4-5-2.4-.9-1.1-1.4-2.7-2-4.2-.5-.8-.2-2-.3-3.2,0-4.8-.4-9.6,0-14.8,0-.4-.5-1.6.6-2.1,0,0,0-.4-.4-.4-.9-1.1-1-2.3-.7-4,.3-.8.3-1.6.2-2.4,0-.4,0-.8.3-1.2.4,0,.4.4.8.3,1.3.7,2.1.6,2.8-.2.8-.5,1.5-.9,2.4.2h.8c1.1-1,2.3-1.1,3.4-2,.4-.4,2.4-.6,2.8.2l.9,1.1c.9.7.9,1.5-.2,2-.4,0-.8,0-.4.4,0,.4.4.4.8,0,.8-.5,1.6-.5,1.9-1,1.2-.5,1.9-1,2.8.2h.4c1.6-.6,2.1.6,2.1,1.4.1,1.2.2,2,1.3,1.5.4,0,.8.3.9.7.9.7,1.3,1.1,2.1,1.4.8,0,.9,1.1,1.3,1.5.5,1.2,1,2.3,2.2,2.6.8.3,1.3,1.5,1.4,2.7-.3.8.1,1.2.9,1.1.8,0,1.3.7,2,.2q.4,0,.8.3c0,.4-.4.4-.3.8-1.2.5-.3,1.2.1,1.6.9,1.1,1,1.9-.2,2.4,0,.4-.4.4-.4.4-.4,0-.8.5-.7.9,0,0,.4.4.8.3,1.7.7,2.1,1,1.5,3.1,0,.4-.4.4,0,.8,0,.4.4,0,.8,0l.4-.4c.4-.4.4,0,.8.3q.2,2,2.2,2.2s.4,0,.4.4ZM543.3,298.5c.4-.4,0-.4,0-.4-.8,0-.8.5-1.1.9,0,.4.4.4.4.4.4-.4.8-.5.7-.9ZM542.3,213.9l1.3,1.5c.4,0,.8-.5.7-.9,0-.8-.9-1.1-1.3-1.1s-.8.5-.8.5ZM542.9,170.5c0,.4-.3.8.5.8.8,0,1.2-.5,1.1-.9,0-.8-.9-1.1-1.3-1.1-.4,0-.8.5-.3,1.2ZM562.2,276.4c0-.4,0-.8-.9-.7h-1.2c-1.6.6-3.1,1.2-4.7,1.3-2.4.2-3.9.7-6.3,1-1.6.1-3.5,1.5-5.5,1.7,0,0-.4.4-.8.5v.8c.5.4.5.8.9.7h.4c-.1-1.6.7-1.3,1.5-1.4.8-.5,1.6-.5,2.7-1,1.2-.5,2.4-.2,3.6,0,1.6.3,2.8-.2,3.9-1.5,1.1-.9,2.7-1.4,3.6-.3.9,1.1,1.2.3,1.2-.1.4-.4.3-.8.7-.9.4,0,.8.3.8,0ZM543.1,223.4v.4s.9,1.1.9,1.1q.4,0,.4-.4c.4-.4-.9-1.1-1.3-1.1ZM545.2,269.4c0,.4.4,0,.4,0,.4,0,.8,0,.8-.5v-.4c-.4.4-1.2.5-1.2.9ZM545.3,146.6q0,.4.4.4c.4,0,.8-.5.7-.9s0-.8-.5-.8c-.4.4-.7.9-.7,1.3ZM546.5,156.1q0,.4.4.4c.4,0,.8,0,.8-.5,0-.4-.9-.7-.9-.7-.4,0-.3.8-.3.8ZM548.5,293.6c0-.4-.4,0-.4-.4-.4.4-.8.5-.7.9,0,.4.4.4.4,0,.4,0,.8,0,.8-.5ZM547.8,166c.4.4.8,0,1.6-.5,0-.4-.4-.4-.4-.4-.8,0-1.2-.3-1.6.5,0,0,0,.4.4.4ZM550.1,275c.8,0,1.6-.1,1.5-.9q0-.4-.4-.4c-.4,0-1.2.5-1.1,1.3ZM551.9,204.6s0,.4.4.4c.4-.4.8-.5.7-.9s-.4-.4-.4-.4c-.4,0-.8.5-.7.9ZM552.1,170c0,.4,1.3,1.1,1.7,1.1.4,0,.8-.5.3-1.6,0,0,.3-.8-.5-.8-.8.5-1.6.5-1.5,1.3ZM554.4,246.1c.4,0,.8.3.9.7,0,.4-.4.4-.8.5s-.8,0-.4-.4c0-.4,0-.8.3-.8ZM554.5,243.3c.4.4.8,0,1.2-.1,0-.4.4-.4.4-.4.4,0,1.2-.5.7-.9-.4-.4-.9-.7-1.3-.7-.8,0-1.2.5-.7.9,0,.4-.7.9-.3,1.2ZM554.8,269c.4.4.5,1.2,1.3,1.1.8,0,1.1-.9,1.1-1.7,0-.8-.5-1.2-1.7-1.1-.4,0-1.1.9-.7,1.7ZM555.7,155.3c0,.8.4.4.8,0,.4,0,.8-.5,1.1-.9q.4,0,.4-.4l-.4-.4c-1.3-.7-1.2.5-1.5,1.3-.4,0-.8.5-.4.4ZM558.1,330.1c-.4-.4-.9-.7-1.2-.3-.4.4-.7.9-.7,1.7l.4.4c.4-.4,1.2-.5,1.5-1.3,0,0,.4-.4,0-.4ZM559.7,247.3h.4c.4,0,.4-.5.8-.5,0-.4-.4-.4-.4-.4-.4,0-.8,0-.7.9ZM560.4,273.7q0,.4.4,0,.4,0,.8-.5c0-.4-.4,0-.8,0,0,0-.4,0-.4.4ZM563,326.1h-.4c-.4,0-.8.5-.7.9h.4c.4,0,.8-.1.7-.9ZM562,168.4l.4.4c.4-.4.8-.5.8-.5,0-.4-.4-.4-.4-.4-.4,0-.8,0-.8.5ZM562.7,249.8c.4,0,1.2-.1,1.3.7,0,.4-.3.8-.7.9-.4,0-.8,0-.9-.7,0-.4,0-.8.3-.8ZM565.3,274.9c-.4,0-1.2-.3-1.2.5,0,.4.4.4.8.3.4,0,.8-.5.7-.9,0-.4-.4,0-.4,0ZM571.1,277.2c-.4-.4-.1-1.2-.9-1.1-.4,0-.4.4-.4.4.4.4.1,1.2.9,1.1l.4-.4ZM571.5,285.6c0-.4-.4-.4-.4-.4-.4.4-.8.5-.7.9h.8c0,0,.4-.1.4-.5ZM572.6,326.1c0-.4-.4-.4-.4-.4-.4,0-.8,0-.8.5s.4.4.4.4c.4,0,.8,0,.8-.5ZM577.1,289.9c-.4-.4-.5-.8-.9-.7-.4,0-.8,0-.8.5.4.4.9.7,1.3.7.4,0,.4-.4.4-.4ZM577.4,339.7c0-.4-.4-.4-.4-.4-.8,0-.8.5-.7.9h.4c.4,0,.8-.1.8-.5ZM577.9,299.5c-.4,0-.4-.4-.8-.3-.4,0-.4.4-.4.4,0,.4,0,.8.9.7,0,0,.4-.4.3-.8ZM579.1,309c0-.4-.4-.4-.8-.3-.4,0-.8,0-.8.5,0,.4.1,1.2.9.7.4,0,.8-.5.7-.9ZM581.1,275.9c0-.4-.5-1.2-.9-1.1-.8,0-1.2.5-1.5.9,0,0,0,.4.4.4.4-.4.4.4.8.3.8.3,1.2-.1,1.2-.5ZM582.6,316l-.9-.7c0,.4-.3.8-.3,1.2,0,.4.4.4.4.4.4,0,.8-.5.7-.9ZM583.9,317q0-.4-.4-.4c-.4,0-.8.5-.7.9h.8c0,0,.4-.1.4-.5ZM585.1,312.5c-.4-.4-.8,0-1.2.5-.4.4-.7.9-.3,1.2-.4.4-.3.8,0,.8.4,0,.4-.4.3-.8,0-.4.4-.4.3-.8.4-.4,1.2-.5.7-.9ZM587.7,342.8l.4.4c-.4.4-.8.5-1.2.5h-.4c0-.4.8-.4,1.1-.9ZM588.6,307.4c0-.4,0-.8-.4-.4-.8,0-.7.9-1.1,1.7v.4s.4,0,.4,0c.8,0,1.6-.5,1.9-1.4.4-.4-.8,0-.8-.3ZM589.9,317.7c0-.4-.4-.4-.4-.4-.8,0-1.2.5-1.1,1.3h.8c0-.5.8-.1.7-.9ZM597.8,297.4c0-.4-.4-.4-.4-.4-.8,0-.9-1.1-1.7-.7-.7.9.5,1.2.5,1.6-.4.4,0,.8.4.4.4-.4,1.2-.5,1.1-.9ZM599,306.5c0-.4-.9-.7-1.7-.7-.4.4-.8.5-.3.8,0,.4-.3,1.2.5,1.2.8,0,1.6-.5,1.5-1.3ZM599,315.3c-.4-.4-1.1.9-1.1,1.7,0,0-.3.8.5.8.8,0,1.6-.5,1.1-1.3,0-.4.3-1.2-.5-1.2ZM603.3,300.5q-.4-.4-.8-.3c-.4,0-1.9,1.4-1.5,1.7l1.3,1.1c.8-.5,1.1-1.7,1-2.5ZM603.5,330.6s.4,0,.4-.4c-.4.4.9,1.1-.3,1.2-.4,0-.8,0-1.2-.3,0-.4.8-.5,1.2-.5ZM604.2,320.1q-.4,0-.8.5v.4c.4,0,.8,0,.8-.5.4,0,.4-.4,0-.4ZM610.6,306.3c0-.4-.1-1.2-.9-.7-.4,0-.8,0-.3.8,0,.4.5.8.9.7.4,0,.8-.5.3-.8ZM614.9,318.7c-.4,0-.4-.4-.4-.4h-1.2c0,.1-.7,1.4-.7,1.4,0,.4.4,0,.8,0,.4,0,1.2-.1,1.5-.9ZM614.9,304.7c.8,0,1.2-.1,1.3.7,0,.4.4.4.8.3.4-.4.8-.5.7-.9.4-.4,0-.4-.5-.8-.4-.4-1.2-.3-2,.2l-.4.4ZM619.3,313.9c-.4-.4-1.2-.3-1.6-.3-.4-.4-.4.4-.3.8q0,.8.5.8c.4,0,1.5-.9,1.5-1.3ZM619.7,322.7c0-.4-.4-.4-.4-.4-.8,0-1.2.5-1.5.9-.4.4.4.4.5.8,0,.4-.3.8.5.8.4,0,.8-.5.7-.9,0-.4-.5-1.2.3-1.2ZM621.3,308.9c-.4.4,0,.4.4.4.4,0,1.2-.1,1.1-.9,0-.4-.5-1.2-.9-1.1-.4.4-.7,1.3-.7,1.7ZM625,318.7c0-.4-1.4-1.9-1.8-1.9-.8,0-.3.8-.7,1.3-.4.4-.7.9.1,1.2.9.7,1.7.7,2-.2q.4,0,.4-.4ZM627.3,303.6c0-.4-.4-.4-.4-.4-.4,0-.8.5-.7.9,0,.4.4.4.8.3,0,0,.4-.4.3-.8ZM633.2,307.1c0-.8-.5-.8-.9-.7-.8,0-.7.9-1.1,1.3q0,.4.4.4c.4-.4,1.2-.5,1.5-.9ZM641.9,306.3c0-.4-.4,0-.8,0,0,0-.4,0-.4.4,0,.4.4.4.4.4.4,0,.8-.5.7-.9ZM643.1,315.5s-.4,0-.8-.3c-.4.4-.7.9-.7,1.3,0,.4.4.4.8,0,0,0,.8,0,.7-.9ZM657.9,309.8h-.8c-.4.1-.8.5-.7.9,0,.4.4.4.4,0,.4,0,.8,0,1.1-.9ZM659.9,305.2h.4c.4,0,.8-.1.7-.9h-.4c-.4,0-.8.1-.7.9ZM663.5,323.3c0-.4-.4-.4-.4-.4-.4,0-.8.5-1.1.9,0,.4.4.4.8.3.4-.4.8-.5.7-.9Z"/>
        </g>
      </g>
    </g>
    <g id="She_s_just_a" class="st1">
      <g class="st1">
        <g class="st1">
          <path class="st2" d="M78,64.4c-5.8,0-8.7,1.9-8.7,5.8s.7,3,2.2,3.9c1.4.9,4.8,2.2,10.1,3.9,5.3,1.7,9,3.6,11.2,5.8,2.1,2.2,3.2,5.5,3.2,10s-1.7,10-5.2,13c-3.5,2.9-8,4.4-13.6,4.4s-9.3-.6-15.3-1.9l-2.9-.6,1.1-8.6c7.1,1,12.6,1.4,16.4,1.4,5.7,0,8.5-2.3,8.5-7s-.7-3-2-4c-1.3-1-3.9-2-7.8-3.1-6.2-1.8-10.5-3.9-13.1-6.3-2.5-2.4-3.8-5.8-3.8-10.1s1.7-9.5,5-12.2c3.3-2.7,7.8-4,13.6-4s9,.5,15,1.6l2.9.6-.9,8.7c-7.5-.9-12.8-1.3-15.9-1.3Z"/>
          <path class="st2" d="M114.6,110.2h-10.7v-56h10.7v17.9c3.7-1.9,7-2.9,9.9-2.9,5.3,0,9,1.6,11,4.7,2,3.1,3,8,3,14.6v21.7h-10.7v-21.4c0-3.4-.4-5.9-1.2-7.5-.8-1.6-2.4-2.4-4.8-2.4s-4.2.3-6.2,1l-1,.3v30.1Z"/>
          <path class="st2" d="M158.9,100.1c1.3,1.1,3.1,1.6,5.4,1.6,5,0,9.4-.2,13.3-.5l2.2-.2.2,7.9c-6.1,1.5-11.7,2.2-16.6,2.2s-10.4-1.6-13.1-4.8c-2.7-3.2-4.1-8.4-4.1-15.6,0-14.3,5.9-21.5,17.7-21.5s17.4,6,17.4,18.1l-.8,7.4h-23.5c0,2.5.7,4.2,2,5.3ZM170.7,86.6c0-3.2-.5-5.4-1.5-6.7-1-1.3-2.8-1.9-5.3-1.9s-4.3.7-5.4,2c-1,1.3-1.6,3.5-1.6,6.6h13.8Z"/>
          <path class="st2" d="M187.2,75.6l3.8-19.8h11.3l-6.8,19.8h-8.2Z"/>
          <path class="st2" d="M236.6,80.2c-6.6-.9-11.2-1.3-13.9-1.3s-4.3.2-5.1.7c-.8.5-1.2,1.2-1.2,2.3s.5,1.8,1.6,2.2c1,.4,3.7,1,8,1.8,4.3.8,7.3,2,9.2,3.8,1.8,1.8,2.7,4.6,2.7,8.6,0,8.6-5.4,13-16.1,13s-7.8-.5-12.8-1.4l-2.6-.5.3-9c6.6.9,11.2,1.3,13.8,1.3s4.3-.3,5.3-.8c.9-.5,1.4-1.3,1.4-2.3s-.5-1.8-1.5-2.2c-1-.5-3.5-1.1-7.7-1.8-4.1-.7-7.2-1.9-9.2-3.5-2-1.7-3-4.6-3-8.8s1.4-7.4,4.3-9.6c2.9-2.2,6.6-3.2,11.1-3.2s7.4.5,12.9,1.5l2.6.5-.2,8.9Z"/>
          <path class="st2" d="M276.1,55.9l-3.8,19.8h-11.2l6.8-19.8h8.2ZM290.8,55.9l-3.8,19.8h-11.2l6.8-19.8h8.2Z"/>
          <path class="st2" d="M298.8,108.3v-38.1h10.7v38.2c0,5.4-.9,9.5-2.8,12-1.9,2.6-5.7,5.3-11.4,8.2l-4.2-7.9c2.4-1.6,4.1-2.9,5-3.8,1-.9,1.7-2,2.1-3.2.4-1.3.6-3.1.6-5.4ZM298.8,65.1v-10.9h10.7v10.9h-10.7Z"/>
          <path class="st2" d="M343,70.2h10.7v40h-10.6v-2.2c-3.8,2.1-7.2,3.2-10,3.2-5.5,0-9.3-1.5-11.2-4.6-1.9-3.1-2.9-8.2-2.9-15.4v-21h10.7v21.1c0,3.9.3,6.6,1,8.1.6,1.4,2.2,2.2,4.6,2.2s4.6-.4,6.6-1.1l1-.3v-29.9Z"/>
          <path class="st2" d="M392.4,80.2c-6.6-.9-11.2-1.3-13.9-1.3s-4.3.2-5.1.7c-.8.5-1.2,1.2-1.2,2.3s.5,1.8,1.6,2.2c1,.4,3.7,1,8,1.8,4.3.8,7.3,2,9.2,3.8,1.8,1.8,2.7,4.6,2.7,8.6,0,8.6-5.4,13-16.1,13s-7.8-.5-12.8-1.4l-2.6-.5.3-9c6.6.9,11.2,1.3,13.8,1.3s4.3-.3,5.3-.8c.9-.5,1.4-1.3,1.4-2.3s-.5-1.8-1.5-2.2c-1-.5-3.5-1.1-7.7-1.8-4.1-.7-7.2-1.9-9.2-3.5-2-1.7-3-4.6-3-8.8s1.4-7.4,4.3-9.6c2.9-2.2,6.6-3.2,11.1-3.2s7.4.5,12.9,1.5l2.6.5-.2,8.9Z"/>
          <path class="st2" d="M423.6,79.3h-9.8v16.4c0,1.6,0,2.7.1,3.4,0,.7.4,1.2.9,1.7.5.5,1.3.7,2.4.7l6.1-.2.5,8.6c-3.6.8-6.3,1.2-8.2,1.2-4.8,0-8.1-1.1-9.8-3.2s-2.6-6.1-2.6-12v-16.6h-4.7v-9.1h4.7v-11.1h10.7v11.1h9.8v9.1Z"/>
          <path class="st2" d="M428.8,75.5l3.8-19.8h11.3l-6.9,19.8h-8.2ZM443.6,75.5l3.8-19.8h11.3l-6.8,19.8h-8.2Z"/>
          <path class="st2" d="M513.9,82.7v16.6c.1,1.3.3,2.2.6,2.7.3.5,1,.9,2,1.1l-.3,8.1c-2.7,0-4.9-.2-6.5-.6-1.6-.4-3.3-1.1-4.9-2.2-3.8,1.9-7.8,2.8-11.8,2.8-8.3,0-12.4-4.4-12.4-13.1s1.1-7.3,3.4-9.1c2.3-1.8,5.8-2.8,10.6-3.2l8.6-.6v-2.5c0-1.7-.4-2.8-1.1-3.4-.7-.6-1.9-.9-3.6-.9l-15,.6-.3-7.4c5.7-1.5,11.1-2.3,16.3-2.3s8.9,1.1,11.1,3.2c2.3,2.1,3.4,5.5,3.4,10.2ZM495.9,93.2c-3,.3-4.5,1.9-4.5,4.8s1.3,4.4,3.9,4.4,4.2-.3,6.6-1l1.2-.3v-8.6l-7.3.6Z"/>
        </g>
      </g>
    </g>
  </g>
</svg>