<?xml version="1.0" encoding="UTF-8"?>
<svg id="Componente_4_7" xmlns="http://www.w3.org/2000/svg" version="1.1" viewBox="0 0 328 89.4">
  <!-- Generator: Adobe Illustrator 29.8.1, SVG Export Plug-In . SVG Version: 2.1.1 Build 2)  -->
  <defs>
    <style>
      .st0 {
        fill: #6d35d8;
      }

      .st1 {
        isolation: isolate;
      }

      .st2 {
        fill: #fff;
      }

      .st3 {
        fill: none;
        stroke: #707070;
      }
    </style>
  </defs>
  <g id="Grupo_34">
    <path id="Trazado_135" class="st0" d="M0,89.2L34.5.2h293.5l-35.8,89"/>
    <path id="Trazado_136" class="st3" d="M0,89.1h293"/>
  </g>
  <g id="READ_COMIC_ON_MARVEL_UNLIMITED" class="st1">
    <g class="st1">
      <g class="st1">
        <path class="st2" d="M87.6,28.1v5.2h-3.2v-15.6h6.1c3.7,0,5.5,1.7,5.5,5.2s-.8,3.5-2.3,4.5l2.2,6h-3.5l-1.8-5.2h-3.1ZM92.2,24.7c.4-.5.6-1.1.6-1.8s-.2-1.3-.6-1.8c-.4-.4-1-.7-1.7-.7h-2.9v5h2.9c.8,0,1.3-.2,1.7-.7Z"/>
        <path class="st2" d="M98.7,33.3v-15.6h10.1v2.8h-6.9v3.7h5.6v2.7h-5.6v3.7h6.9v2.8h-10.1Z"/>
        <path class="st2" d="M110.1,33.3l3.5-15.6h6l3.5,15.6h-3.2l-.6-2.8h-5.5l-.6,2.8h-3.2ZM116.1,20.3l-1.6,7.4h4.3l-1.6-7.4h-1.1Z"/>
        <path class="st2" d="M130.5,33.3h-5.3v-15.6h5.3c1.3,0,2.5.1,3.3.4.9.3,1.6.8,2,1.4.5.7.8,1.4,1,2.3.2.9.3,2,.3,3.4s0,2.6-.3,3.5c-.2.9-.5,1.8-1,2.5-.5.7-1.1,1.3-2,1.6-.9.3-2,.5-3.4.5ZM133.9,27.1c0-.5,0-1.2,0-2s0-1.6,0-2.1c0-.5-.2-1-.4-1.4-.2-.4-.6-.7-1-.9s-1.1-.2-1.8-.2h-2.1v10.1h2.1c1.1,0,2-.3,2.5-.9.4-.5.7-1.3.8-2.6Z"/>
        <path class="st2" d="M154.9,33c-1.6.4-3.1.5-4.4.5s-2.3-.2-3.1-.5c-.8-.3-1.4-.8-1.8-1.5s-.8-1.5-.9-2.5c-.2-1-.3-2.1-.3-3.6,0-3,.4-5.1,1.3-6.3.9-1.2,2.4-1.8,4.7-1.8s2.8.2,4.6.6v2.5c-1.6-.2-2.9-.3-3.9-.3s-1.7.1-2.2.4c-.4.3-.7.8-1,1.5-.2.8-.3,2-.3,3.8s.2,3.1.6,3.8c.4.7,1.3,1,2.5,1s2.6-.1,4-.3v2.6Z"/>
        <path class="st2" d="M168.2,31.6c-1,1.3-2.6,1.9-5,1.9s-4.1-.6-5-1.9c-1-1.3-1.5-3.3-1.5-6.1s.5-4.8,1.5-6.2c1-1.3,2.6-2,5-2s4.1.7,5,2,1.5,3.4,1.5,6.2-.5,4.8-1.5,6.1ZM160.6,29.6c.5.8,1.3,1.2,2.5,1.2s2.1-.4,2.5-1.2.7-2.2.7-4-.2-3.3-.7-4.1c-.5-.9-1.3-1.3-2.5-1.3s-2.1.4-2.5,1.3c-.5.9-.7,2.2-.7,4.1s.2,3.2.7,4Z"/>
        <path class="st2" d="M172.3,33.3v-15.6h5.4l2.8,11.4,2.8-11.4h5.4v15.6h-3.2v-12.1h-.3l-3.1,11.4h-3.2l-3.1-11.4h-.3v12.1h-3.2Z"/>
        <path class="st2" d="M192.1,33.3v-15.6h3.2v15.6h-3.2Z"/>
        <path class="st2" d="M208.6,33c-1.6.4-3.1.5-4.4.5s-2.3-.2-3.1-.5-1.4-.8-1.8-1.5c-.4-.7-.8-1.5-.9-2.5-.2-1-.3-2.1-.3-3.6,0-3,.4-5.1,1.3-6.3.9-1.2,2.4-1.8,4.7-1.8s2.8.2,4.6.6v2.5c-1.6-.2-2.9-.3-3.9-.3s-1.7.1-2.2.4c-.4.3-.7.8-1,1.5s-.3,2-.3,3.8.2,3.1.6,3.8c.4.7,1.3,1,2.5,1s2.6-.1,4-.3v2.6Z"/>
        <path class="st2" d="M227,31.6c-1,1.3-2.6,1.9-5,1.9s-4.1-.6-5-1.9c-1-1.3-1.5-3.3-1.5-6.1s.5-4.8,1.5-6.2,2.6-2,5-2,4.1.7,5,2,1.5,3.4,1.5,6.2-.5,4.8-1.5,6.1ZM219.4,29.6c.5.8,1.3,1.2,2.5,1.2s2.1-.4,2.5-1.2c.5-.8.7-2.2.7-4s-.2-3.3-.7-4.1c-.5-.9-1.3-1.3-2.5-1.3s-2.1.4-2.5,1.3c-.5.9-.7,2.2-.7,4.1s.2,3.2.7,4Z"/>
        <path class="st2" d="M231.2,33.3v-15.6h5.4l3.8,12.9h.2v-12.9h3.2v15.6h-5.2l-3.9-12.9h-.2v12.9h-3.2Z"/>
      </g>
    </g>
    <g class="st1">
      <g class="st1">
        <path class="st2" d="M63.5,68.3v-15.6h5.4l2.8,11.4,2.8-11.4h5.4v15.6h-3.2v-12.1h-.3l-3.1,11.4h-3.2l-3.1-11.4h-.3v12.1h-3.2Z"/>
        <path class="st2" d="M81.9,68.3l3.5-15.6h6l3.5,15.6h-3.2l-.6-2.8h-5.5l-.6,2.8h-3.2ZM87.9,55.3l-1.6,7.4h4.3l-1.6-7.4h-1.1Z"/>
        <path class="st2" d="M100.3,63.1v5.2h-3.2v-15.6h6.1c3.7,0,5.5,1.7,5.5,5.2s-.8,3.5-2.3,4.5l2.2,6h-3.5l-1.8-5.2h-3.1ZM104.9,59.7c.4-.5.6-1.1.6-1.8s-.2-1.3-.6-1.8c-.4-.4-1-.7-1.7-.7h-2.9v5h2.9c.8,0,1.3-.2,1.7-.7Z"/>
        <path class="st2" d="M119.6,52.7h3.3l-3.6,15.6h-5.9l-3.6-15.6h3.3l2.7,12.9h1l2.7-12.9Z"/>
        <path class="st2" d="M125,68.3v-15.6h10.1v2.8h-6.9v3.7h5.6v2.7h-5.6v3.7h6.9v2.8h-10.1Z"/>
        <path class="st2" d="M146.6,68.3h-8.9v-15.6h3.2v12.8h5.7v2.8Z"/>
        <path class="st2" d="M156.7,63.1c0,1.8.9,2.7,2.8,2.7s2.8-.9,2.8-2.7v-10.4h3.2v10.3c0,1.9-.5,3.3-1.5,4.2-1,.9-2.5,1.3-4.5,1.3s-3.5-.4-4.5-1.3c-1-.9-1.5-2.3-1.5-4.2v-10.3h3.2v10.4Z"/>
        <path class="st2" d="M168.7,68.3v-15.6h5.4l3.8,12.9h.2v-12.9h3.2v15.6h-5.2l-3.9-12.9h-.2v12.9h-3.2Z"/>
        <path class="st2" d="M193.5,68.3h-8.9v-15.6h3.2v12.8h5.7v2.8Z"/>
        <path class="st2" d="M195.5,68.3v-15.6h3.2v15.6h-3.2Z"/>
        <path class="st2" d="M202.1,68.3v-15.6h5.4l2.8,11.4,2.8-11.4h5.4v15.6h-3.2v-12.1h-.3l-3.1,11.4h-3.2l-3.1-11.4h-.3v12.1h-3.2Z"/>
        <path class="st2" d="M221.8,68.3v-15.6h3.2v15.6h-3.2Z"/>
        <path class="st2" d="M227,55.5v-2.8h11.5v2.8h-4.1v12.8h-3.2v-12.8h-4.2Z"/>
        <path class="st2" d="M240.5,68.3v-15.6h10.1v2.8h-6.9v3.7h5.6v2.7h-5.6v3.7h6.9v2.8h-10.1Z"/>
        <path class="st2" d="M258.5,68.3h-5.3v-15.6h5.3c1.3,0,2.5.1,3.3.4.9.3,1.6.8,2,1.4.5.7.8,1.4,1,2.3.2.9.3,2,.3,3.4s0,2.6-.3,3.5-.5,1.8-1,2.5c-.5.7-1.1,1.3-2,1.6-.9.3-2,.5-3.4.5ZM261.8,62.1c0-.5,0-1.2,0-2s0-1.6,0-2.1c0-.5-.2-1-.4-1.4-.2-.4-.6-.7-1-.9s-1.1-.2-1.8-.2h-2.1v10.1h2.1c1.1,0,2-.3,2.5-.9.4-.5.7-1.3.8-2.6Z"/>
      </g>
    </g>
  </g>
</svg>